<?xml version="1.0" encoding="utf-8"?>
<!-- Generator: Adobe Illustrator 21.0.2, SVG Export Plug-In . SVG Version: 6.00 Build 0)  -->
<svg version="1.1" id="レイヤー_1" xmlns="http://www.w3.org/2000/svg" xmlns:xlink="http://www.w3.org/1999/xlink" x="0px"
	 y="0px" viewBox="0 0 595 842" style="enable-background:new 0 0 595 842;" xml:space="preserve">
<style type="text/css">
	.st0{fill:#A0A0A0;}
	.st1{fill:#50A574;}
	.st2{fill:#AA7C57;}
	.st3{fill:#E2902D;}
	.st4{fill:#6A7841;}
	.st5{fill:none;}
	.st6{fill:#D16F59;}
	.st7{fill:#DB814C;}
	.st8{fill:#DB8243;}
	.st9{fill:#C9535B;}
	.st10{fill:#D77C59;}
	.st11{fill:#D87D51;}
	.st12{fill:#DB8942;}
	.st13{fill:#C74C5A;}
	.st14{fill:#C6495B;}
	.st15{fill:#D16760;}
	.st16{fill:#CD5A5F;}
	.st17{fill:#D57562;}
	.st18{fill:#DA9943;}
	.st19{fill:#D7B243;}
	.st20{fill:#CE625F;}
	.st21{fill:#D9A443;}
	.st22{fill:#C54C52;}
	.st23{fill:#C75254;}
	.st24{fill:#D4765B;}
	.st25{fill:#C54955;}
	.st26{fill:#CC6356;}
	.st27{fill:#CE6957;}
	.st28{fill:#CA5F53;}
	.st29{fill:#C95A52;}
	.st30{fill:#C34750;}
	.st31{fill:#C6544E;}
	.st32{fill:#C34E4D;}
	.st33{fill:#C1474B;}
	.st34{fill:#FFFFFF;}
	.st35{fill:#FF8800;}
	.st36{fill:#57A1BE;}
	.st37{fill:#FFD200;}
	.st38{fill:#010101;}
</style>
<g>
	<path class="st0" d="M264,254.3c-0.3,0.1-0.5,0.1-0.8,0.2c0-1.1,0-2.2,0-3.3c0.2,0,0.4,0,0.6,0C263.9,252.2,263.9,253.3,264,254.3z
		"/>
	<path d="M264,254.3c-0.1-1-0.1-2.1-0.2-3.1c2.8-4.9,6.9-8.6,11.3-12.1c9.9-8,21.3-11.7,34-11.3c2.3,0.1,4.5,0.4,7.3,0.7
		c-0.1-1.5-0.1-2.7-0.4-3.9c-0.6-2.6-1.5-5.2-2.2-7.9c-1.1-4.1,0.4-6,4.6-6.1c12.6-0.3,21.9,6.1,26.2,18.1c0.3,0.8,0.6,1.6,0.8,2.1
		c4.1-1.1,8-2.5,12-3.3c7.9-1.5,15.6-0.2,23.2,2c1.6,0.5,2.7,1.5,2.9,3.2c0.2,1.9-1,2.9-2.5,3.9c-3.5,2.2-7,4.4-10.4,6.7
		c-0.9,0.6-1.6,1.4-2.7,2.4c1.4,0.4,2.4,0.7,3.5,1c11.5,3.2,19.2,10.3,22.3,22c0.5,1.7,0.5,3.3-0.8,4.5s-2.9,1-4.6,0.5
		c-4.2-1.2-8.4-2.3-12.6-3.3c-1.3-0.3-2.7-0.2-4.6-0.4c3.3,4.3,5.4,8.6,5.5,13.5c0.1,2.9-0.1,5.9-0.6,8.7
		c-1.1,5.7-3.7,10.9-6.7,15.9c-0.9,1.5-2,2.6-3.9,2.4c-1.8-0.2-2.7-1.5-3.5-3c-2.3-4.7-4.8-9.3-7.2-13.9c-0.2-0.5-0.7-0.8-1.2-1.4
		c-5.5,6.1-11.9,7.4-19.7,3.8c-1.6,5.2-3.3,10.1-4.5,15.1c-2,8-3.3,16.2-3.5,24.5c-0.1,4.6-1.4,5.8-5.9,5.8c-7,0-14,0-20.9,0
		c-4.9,0-6.1-1.1-5.6-6c1.4-15.2,5.6-29.5,14.4-42.1c0.7-1,1.3-2,2.1-3.1c-3.6-2.2-5.9-5.3-6.6-9.7c-1.9,0.3-3.6,0.5-5.2,0.9
		c-6.9,1.7-13.5,4.2-19.6,8c-0.9,0.6-1.9,1.2-2.9,1.5c-2.7,0.9-4.8-0.7-4.7-3.5c0-0.5,0.1-1.1,0.2-1.6c4.2-11.9,10.4-22.3,20.9-29.7
		c1.3-0.9,2.7-1.7,4.7-2.9c-6.1-0.2-11.6-0.5-17,0.3c-3.6,0.5-7.2,1.5-10.9,2.2C267,256.1,265.2,256.3,264,254.3z M366.3,299.9
		c2.1-4.9,3.7-9.3,3.7-14.2c0-6.1-2.5-10.6-7.5-13.9c-0.9-0.6-1.9-1.1-2.7-1.7c-1.2-0.9-2-2.3-1.4-3.7c0.4-1,1.4-2.2,2.3-2.4
		c4-0.7,8.1-1.4,12.2-0.5c3.9,0.8,8,1.2,12,1.8c-1.6-3.7-3.2-5.4-6.1-7.5c-5.2-3.8-11.1-5.2-17.3-5.7c-1.6-0.1-3-0.5-3.7-2.1
		c-0.7-1.5,0-2.8,0.8-3.9c1.3-1.6,2.5-3.3,4-4.7c2.6-2.4,5.4-4.6,8.3-7c-1,0-1.8,0-2.7-0.1c-6.5-1.5-12.4,0.1-18.2,2.8
		c-1.5,0.7-2.9,1.8-4.4,2.8c-2.7,1.9-5.1,1-5.9-2.2c-0.3-1.1-0.4-2.3-0.7-3.5c-1.8-7.7-5.8-13.5-13.7-15.9c-1.2-0.3-2.5-0.3-3.9-0.4
		c0.2,1,0.2,1.5,0.3,2c1,4,1.7,8,1.7,12.2c0,3.3-2.1,4.9-5.1,4.1c-5.1-1.5-10.3-1.2-15.5-1.1c-2.3,0-4.7,0.5-7,1
		c-6.7,1.6-12.4,5.1-17.7,9.3c-0.3,0.2-0.3,0.7-0.5,1.3c1.1,0.1,2,0.2,2.8,0.1c2-0.2,4.1-0.7,6.1-0.6c5.8,0.3,11.7,0.6,17.5,1.3
		c3.5,0.4,6.9,1.6,10.3,2.6c1.4,0.4,2.4,1.5,2.4,3.1c0,1.1-2,3.1-3.2,3.3c-0.4,0.1-0.9,0-1.3,0.1c-8.4,0.3-15.5,3.6-21.5,9.4
		c-3.8,3.7-6.4,8.2-9.1,12.6c-0.2,0.3,0.1,0.9,0.1,1.3c0.4,0,0.5,0.1,0.6,0c6.2-2.9,12.7-5,19.5-5.8c1.5-0.2,2.1-1.1,2.7-2.4
		c1.1-2.4,2.3-5,4-7c5.8-6.8,17.3-5.5,22.5,1.2c0.6,0.8,1.3,1.6,1.9,2.5c4.4-2.7,8.7-2.4,13.1-0.8c7.3,2.5,12.2,10.1,11.4,16.1
		c-0.2,1.6,0.3,2.9,1.4,4.1c1.3,1.4,2.2,3.2,3.2,4.8C363.5,294.9,364.7,297.1,366.3,299.9z M328.9,291.1c-1.5,0.1-2.4,0.2-3.3,0.3
		c-2.1,0.3-4.2,0.9-6.4,1c-1.7,0.1-2.7,0.8-3.7,2.1c-7.5,9.7-11.9,20.8-14.2,32.7c-0.5,2.5-0.6,5-0.8,7.7c6.4,0,12.2,0,18.6,0
		C320,319.9,323.1,305.5,328.9,291.1z M332.5,282c-0.4,5.6,4.3,10.1,10.8,9.2c6-0.8,9.5-8.6,5.8-13.1c-1.3-1.6-3-3-4.8-3.8
		C337.2,271.2,332,276.3,332.5,282z M324.8,284.5c0.8-3.6,1.5-6.5,2.1-9.4c0.1-0.6,0.4-1.3,0.3-1.9c-0.8-3.4-3.3-5.4-6.5-6.2
		c-3.1-0.7-5.7,0.2-7.7,2.9c-1.7,2.4-2.8,5-3,7.8c-0.3,3.3,0.8,5.7,4.1,6.9C317.8,285.8,321.5,285.7,324.8,284.5z M276.5,246.9
		l0.2,0.1v-0.2L276.5,246.9z"/>
	<path class="st1" d="M366.3,299.9c-1.6-2.7-2.9-5-4.2-7.2c-1-1.7-2-3.4-3.2-4.8c-1.1-1.3-1.6-2.5-1.4-4.1c0.8-6-4.1-13.6-11.4-16.1
		c-4.4-1.5-8.6-1.8-13.1,0.8c-0.7-0.9-1.3-1.7-1.9-2.5c-5.2-6.7-16.8-8.1-22.5-1.2c-1.7,2-2.9,4.6-4,7c-0.6,1.3-1.2,2.3-2.7,2.4
		c-6.8,0.8-13.3,2.9-19.5,5.8c-0.1,0-0.2,0-0.6,0c0-0.4-0.3-1-0.1-1.3c2.7-4.4,5.3-9,9.1-12.6c6-5.8,13.1-9.2,21.5-9.4
		c0.4,0,0.9,0,1.3-0.1c1.2-0.3,3.2-2.3,3.2-3.3c0-1.6-1-2.7-2.4-3.1c-3.4-1-6.8-2.1-10.3-2.6c-5.8-0.7-11.6-1-17.5-1.3
		c-2-0.1-4.1,0.4-6.1,0.6c-0.8,0.1-1.7-0.1-2.8-0.1c0.2-0.6,0.3-1.1,0.5-1.3c5.3-4.2,11-7.7,17.7-9.3c2.3-0.5,4.7-1,7-1
		c5.2-0.1,10.4-0.3,15.5,1.1c3,0.9,5.1-0.8,5.1-4.1c0-4.2-0.7-8.2-1.7-12.2c-0.1-0.5-0.2-1-0.3-2c1.5,0.1,2.8,0.1,3.9,0.4
		c7.9,2.3,11.9,8.2,13.7,15.9c0.3,1.2,0.4,2.3,0.7,3.5c0.8,3.2,3.1,4,5.9,2.2c1.4-1,2.8-2.1,4.4-2.8c5.8-2.7,11.8-4.3,18.2-2.8
		c0.8,0.2,1.7,0.1,2.7,0.1c-2.8,2.4-5.6,4.6-8.3,7c-1.5,1.4-2.8,3-4,4.7c-0.9,1.1-1.5,2.4-0.8,3.9c0.7,1.6,2.1,1.9,3.7,2.1
		c6.2,0.5,12.2,1.9,17.3,5.7c2.9,2.1,4.5,3.9,6.1,7.5c-4.1-0.6-8.1-0.9-12-1.8c-4.2-0.9-8.2-0.2-12.2,0.5c-0.9,0.2-1.9,1.4-2.3,2.4
		c-0.5,1.4,0.3,2.8,1.4,3.7c0.8,0.7,1.8,1.1,2.7,1.7c5,3.3,7.5,7.9,7.5,13.9C370,290.6,368.5,295,366.3,299.9z"/>
	<path class="st2" d="M328.9,291.1c-5.8,14.4-8.9,28.8-9.9,43.8c-6.3,0-12.2,0-18.6,0c0.3-2.7,0.4-5.2,0.8-7.7
		c2.3-12,6.8-23,14.2-32.7c1-1.3,2-2,3.7-2.1c2.1-0.1,4.2-0.7,6.4-1C326.5,291.3,327.4,291.2,328.9,291.1z"/>
	<path class="st3" d="M332.5,282c-0.5-5.7,4.7-10.8,11.7-7.7c1.8,0.8,3.5,2.2,4.8,3.8c3.7,4.5,0.2,12.3-5.8,13.1
		C336.8,292.1,332.1,287.6,332.5,282z"/>
	<path class="st3" d="M324.8,284.5c-3.3,1.2-7,1.4-10.7,0.1c-3.3-1.1-4.4-3.5-4.1-6.9c0.2-2.8,1.4-5.4,3-7.8
		c1.9-2.8,4.6-3.7,7.7-2.9c3.2,0.8,5.6,2.8,6.5,6.2c0.1,0.6-0.1,1.2-0.3,1.9C326.3,278,325.6,280.9,324.8,284.5z"/>
</g>
<ellipse cx="302.2" cy="345.9" rx="56.6" ry="39.7"/>
<ellipse transform="matrix(0.8456 -0.5338 0.5338 0.8456 -207.4119 182.0816)" cx="211.1" cy="449.6" rx="12.5" ry="22.9"/>
<ellipse cx="282.1" cy="440.5" rx="57" ry="38.7"/>
<ellipse transform="matrix(0.2311 -0.9729 0.9729 0.2311 -219.7053 528.6584)" cx="224.6" cy="403.3" rx="59.3" ry="23.5"/>
<ellipse cx="326.8" cy="399.9" rx="50.2" ry="85.2"/>
<g>
	<path d="M303,306c1.7,0,3.3,0,5,0c0.2,1.7,1.5,1,2.3,1c5.8-0.4,11.3,1.3,16.8,3c5.1,1.6,9.5,4.4,14.2,6.8c0.7,0.3,1.4,1.3,2,1.2
		c4-0.6,7.7,1.2,11.6,1.1c13.8-0.1,27.7-0.1,41.5,0c0.9,0,2.1,0.1,2.7,0.6c1.1,0.9,2.6,2,2.9,3.2c0.7,3,0.2,6.2-1.3,8.9
		c-3.3,5.9-8.1,10.3-14.2,13.4c-5.2,2.7-10.6,4-16.4,3.9c-2.9-0.1-2.9,0-2,2.8c0.2,0.6,0.7,1,0.9,1.6c1.8,5,3.2,10.1,4.1,15.3
		c0.4,2.5,1.4,5,1,7.6c1.7,1.6,0.9,3.7,1,5.6s1.2,3.5,1.1,5.6c-0.3,5.8,0,11.7-0.1,17.5c-0.2,5.7,0.7,11.4-0.9,17.1
		c-0.8,2.7-0.4,5.8-1.2,8.5c-0.8,2.9-0.8,6-2,8.7c-1.1,2.6-1.7,5.3-2.8,7.8c-3.2,7.6-6.7,14.9-12.6,20.8c-1.6,1.6-3.2,3.1-5.1,4.5
		c-1.4,1-1.5,3.9-2.3,5.9c-1,2.6-1.9,5.3-3.2,7.6c-2.6,4.4-5.4,8.8-8.5,13c-2.4,3.3-5.2,6.3-8.1,9.1c-3,2.8-6.5,5.2-9.7,7.8
		c-5,4.1-10.6,7.2-16.2,10.3c-3,1.7-6.2,2.7-9.3,4.1c-5,2.3-10.3,3.6-15.6,4.5c-4.9,0.8-10,0.1-15,0.2c-2.3,0-4.2-1.2-6.6-1.2
		c-2,0-4.1-1.1-6.2-1.9c-6-2.1-11.7-5.1-16.8-8.7c-3.4-2.4-6.8-5.2-9.4-8.9c-5.9-8.4-6.2-14.2-1.6-22.8c0.2-0.4,0.6-0.8,1-1.1
		c4.4-2.8,9.4-4.8,14.5-3.3c6.8,2,12.6,5.8,16.5,12.1c4.9,7.8,9.2,10.5,19.3,10.7c2.4,0,4.8-0.5,7.1-0.8c5.1-0.5,9.7-2.4,14.2-4.5
		c8.9-4.1,16.7-9.9,23.4-17.2c0.3-0.3,0.6-0.7,0.9-1.1c-0.6-0.1-1.3-0.5-1.8-0.4c-1.4,0.2-2.7,0.8-4.1,0.9c-1.5,0.2-3,0.2-4.5,0
		c-1.5-0.1-2.5,0.3-3.4,1.4c-2.6,3.2-6,5.1-10,6c-3.8,0.9-7.6,1.3-11.3-0.4c-4.5-2.1-7.1-5.6-7.7-10.6c-0.2-1.6-0.8-3.1-1.2-4.5
		c-0.5-2-3.2-0.1-4.2-1c-2.4-2-5.6,0.3-7.7-1.9c-6.6-0.7-12.7-3-18.7-5.4c-0.7-0.3-0.9-0.7-1.2,0.3c-0.2,1.1-0.5,2.1-1,3.1
		c-0.6,1.3-1.1,2.9-2.1,3.5c-3.4,2-6.8,3.4-11.2,1.8c-6.6-2.4-12.5-5.9-17.6-10.7c-5-4.7-9.2-9.9-12.8-15.7c-1.7-2.7-3-5.4-3.4-8.6
		c-0.1-0.5-0.6-0.9-1-1.3c0-1.7,0-3.3,0-5c0.2,0,0.5,0,0.5,0c0.5-3.9,2.5-7,5-9.9c0.6-0.8,0.5-1.2,0.1-2.1c-1.4-2.9,0.4-6.5-1.5-9.4
		c-0.2-0.2,0-0.7,0-1s-0.1-0.7,0-1c2-3.3,1.3-5.9-1.4-8.7c-1.7-1.7-2.2-4.2-1.4-6.7c0.8-2.7,2-5.4,4.8-6.1c1.7-0.5,1.6-1,2.2-2.3
		c2-4.8,2.8-10.2,6-14.5c1-1.3,1.9-2.5,2.8-3.8c0.4-0.5,1-1,1-1.6c0.2-5.5,4.1-8.5,7.5-11.9c2.3,0,2-2,1.3-2.6
		c-1.5-1.5,0.2-2.3,0.2-3.3c0-1.7,0.7-2.5,2.3-3.2c2.7-1.1,5.3-2.5,7.8-4c3.4-2,6.6-4.3,9.8-6.4c2.8-5.5,7.5-9.3,11.6-13.7
		c4.1-4.3,9.2-7.3,14.2-10.2c4.7-2.7,9.9-4.3,15-6.1c2.1-0.8,4.6,0.5,6.4-1.5c3.9-0.1,7.6-1.7,11.6-1c0.6,0.1,1.3,0,1.9-0.2
		C302.8,306.8,302.9,306.3,303,306z"/>
</g>
<polygon class="st4" points="276.5,246.9 276.7,246.9 276.6,247.1 "/>
<g>
	<rect y="24.3" class="st5" width="595" height="793.3"/>
</g>
<g>
	<rect y="24.3" class="st5" width="595" height="793.3"/>
</g>
<path d="M350.8,415.7c0,1.5,0.1,3,0,4.6c-0.2,2.8-0.5,5.6-0.9,8.4c-0.6,3.4-1.7,6.7-3.2,9.8c-0.9,2-2,3.9-3.2,5.7
	c-1.1,1.8-2.3,3.6-3.6,5.3c-1.2,1.5-2.5,2.9-3.9,4.2c-1.3,1.3-2.7,2.6-4.1,3.9c-1.3,1.1-2.6,2.2-4,3.2c-1.2,0.9-2.4,1.6-3.6,2.4
	c-1.8,1.1-3.7,2.2-5.5,3.2s-3.7,1.9-5.6,2.7c-1.9,0.8-3.7,1.6-5.7,2.2c-4.1,1.1-8.1,2.2-12.3,2.9c-3.2,0.6-6.4,0.8-9.6,1
	c-2.5,0.2-5.1,0.2-7.6,0.1c-2.4-0.1-4.7-0.3-7.1-0.6c-3.1-0.5-6.2-1-9.3-1.7c-2.1-0.4-4.1-1.1-6.2-1.7c-2.4-0.7-4.9-1.4-7.3-2.2
	c-2.6-0.9-5.1-2-7.6-3.1c-1.8-0.8-3.5-1.6-5.2-2.5c-2.3-1.3-4.5-2.6-6.8-4c-1.4-0.8-2.7-1.7-4-2.7c-1.6-1.3-3.2-2.6-4.8-3.9
	c-1-0.8-1.9-1.6-2.8-2.5c-1.3-1.3-2.6-2.7-3.9-4.2c-1-1.1-1.9-2.3-2.8-3.5c-0.7-1-1.4-2.1-2.1-3.2c-0.6-1-1.3-2.1-1.8-3.1
	c-0.7-1.3-1.3-2.6-1.8-4c-0.4-0.9-0.7-1.9-1-2.9c-0.7-2.1-1.3-4.3-1.5-6.6c-0.2-2.5-0.5-5.1-0.5-7.6c0.1-2.6,0.5-5.1,0.8-7.7
	c0.1-0.5,0.3-1.1,0.2-1.5c-0.1-0.3-0.8-0.3-1.3-0.5c-2.9-0.8-3.3-2.7-2.9-5.1c0.1-0.7,0.3-1.5,0.6-2.2c0.8-2.2,2.7-2.6,4.9-2.1
	c0.6,0.1,0.8,0.1,0.8-0.5c0.5-4.3,1.7-8.4,3.4-12.3c1.3-2.9,2.8-5.6,4.8-8.1c1.4-1.7,2.8-3.6,4.4-5.2c2-1.9,4.1-3.8,6.5-5.3
	c2-1.2,3.9-2.6,6-3.7c1.8-1,3.8-1.8,5.7-2.5c2.7-1,5.4-2,8.1-2.8c2.1-0.6,4.3-0.9,6.4-1.3c1.8-0.3,3.6-0.7,5.4-0.9
	c2.6-0.3,5.2-0.5,7.8-0.6c2.1-0.1,4.2-0.1,6.3-0.1c2.8,0.1,5.6,0.2,8.3,0.4c2.2,0.2,4.5,0.4,6.7,0.8c3,0.5,5.9,1.1,8.9,1.8
	c2.5,0.6,5,1.3,7.4,2.2c2.6,0.9,5.1,2.1,7.7,3.2c1.4,0.6,2.7,1.2,4,1.9c1.8,1,3.5,2,5.2,3.1c1.9,1.2,3.9,2.5,5.8,3.8
	c1.7,1.3,3.3,2.7,4.9,4.1c1,0.9,2.1,1.7,3.1,2.7c1.2,1.2,2.4,2.5,3.5,3.7s2.1,2.4,3.1,3.7c1.5,2,2.9,4.1,4.2,6.2
	c1.3,2.1,2.5,4.3,3.6,6.6c0.9,1.8,1.6,3.7,2.2,5.6c0.7,1.9,1.3,3.9,1.7,5.9c0.5,2,0.7,4,1,6C350.8,415,350.8,415.3,350.8,415.7
	C350.7,415.7,350.7,415.7,350.8,415.7z M293.1,362c-0.5-0.1-0.9-0.3-1.4-0.3c-2.1-0.4-4.3-0.9-6.4-1.3c-2.5-0.3-5-0.7-7.5-1
	c-1.6-0.2-3.3-0.3-4.9-0.4c-1.1-0.1-2.2-0.2-3.2-0.1c-2.3,0-4.5,0.1-6.8,0.2c-2,0.1-4.1,0.2-6.1,0.4c-2.4,0.3-4.8,0.7-7.1,1.2
	c-2.6,0.6-5.2,1.3-7.8,2c-1.2,0.3-2.4,0.8-3.6,1.2c-0.5,0.2-1,0.4-1.5,0.6c-2.3,1.2-4.5,2.4-6.8,3.5c-2.5,1.3-4.7,3.1-6.8,5
	c-2.2,1.8-4,4-5.7,6.3c-2,2.7-3.4,5.6-4.6,8.7c-1.1,3-1.6,6.2-2.1,9.4c0,0.2,0.2,0.6,0.4,0.8c0.6,0.7,1.4,1.3,1.7,2.1
	c0.3,0.8,0,1.7-0.1,2.6c-0.2,1.8-1.3,2.6-2.9,3.1c-0.3,0.1-0.7,0.5-0.8,0.8c-0.3,1-0.5,2-0.6,3c-0.7,3.5-0.8,7-0.4,10.5
	c0.2,1.7,0.5,3.5,0.9,5.2c0.3,1.1,0.8,2.1,1.2,3.1c0.3,0.7,0.4,1.5,0.8,2.2c0.8,1.7,1.5,3.4,2.5,4.9c1.3,2,2.7,4,4.1,5.9
	c0.9,1.2,2.1,2.3,3.1,3.4c0.8,0.8,1.6,1.6,2.4,2.3c1.8,1.5,3.6,3.1,5.5,4.5s3.8,2.6,5.8,3.8c2.3,1.3,4.6,2.7,7,3.8
	c2.5,1.2,5.1,2.3,7.7,3.3c1.6,0.6,3.2,1.1,4.8,1.6c2,0.6,3.9,1.2,5.9,1.8c1.6,0.4,3.3,0.8,4.9,1.2c1.1,0.2,2.3,0.5,3.4,0.7
	c1.9,0.3,3.9,0.4,5.8,0.7c1.4,0.1,2.9,0.4,4.3,0.4c2.5,0.1,5,0,7.5,0c1.3,0,2.5-0.3,3.7-0.4c0.3,0,0.5,0.1,0.8,0
	c1.2-0.1,2.3-0.2,3.5-0.4c1.9-0.4,3.8-0.8,5.7-1.2c1.1-0.3,2.2-0.5,3.2-0.8c0.7-0.2,1.4-0.5,2.1-0.8c1.4-0.5,2.9-0.9,4.3-1.4
	c1.1-0.4,2.1-0.9,3.2-1.3c1-0.4,2-0.8,3-1.3c1.8-0.9,3.5-1.9,5.3-3c0.7-0.4,1.2-0.9,1.9-1.4c1.4-1,2.9-2.1,4.3-3.1v-0.1
	c0.6-0.5,1.3-0.9,1.8-1.4c1.2-1.1,2.3-2.2,3.4-3.3c0.3-0.3,0.6-0.5,0.8-0.8c0.8-1,1.7-2.1,2.5-3.1c0.2-0.1,0.4-0.2,0.5-0.4
	c1.2-1.8,2.4-3.5,3.5-5.3c1.8-2.9,3-6,4-9.3s1.5-6.8,1.4-10.2c0-2.1-0.2-4.3-0.5-6.4c-0.4-2.4-1-4.9-1.6-7.3
	c-0.6-1.6-1.2-3.2-1.7-4.8c-0.1-0.3-0.3-0.6-0.4-0.9c-0.3-0.7-0.6-1.3-0.9-2c-0.8-1.5-1.6-3.1-2.4-4.6c-0.6-1.1-1.4-2.1-2.1-3.1
	c0-0.1,0-0.3-0.1-0.3c-1.6-2-3.2-4.1-4.9-6.1c-0.7-0.8-1.6-1.5-2.4-2.3c-0.1-0.2-0.2-0.5-0.4-0.6c-1.1-1-2.1-2.1-3.2-3.1
	c-0.8-0.7-1.6-1.2-2.4-1.9c-0.9-0.7-1.8-1.3-2.8-2c-0.1-0.2-0.2-0.4-0.4-0.5c-0.7-0.6-1.5-1.1-2.3-1.6c-1.1-0.7-2.3-1.4-3.5-2.1
	c-0.2-0.1-0.3-0.3-0.5-0.4c-2.3-1.2-4.7-2.4-7-3.6c-1.2-0.5-2.4-0.9-3.6-1.4c-0.8-0.3-1.6-0.7-2.4-1
	C297.2,363.3,295.1,362.7,293.1,362z"/>
<ellipse transform="matrix(0.327 -0.945 0.945 0.327 -207.3505 538.5294)" class="st6" cx="274.4" cy="414.9" rx="59.4" ry="71.5"/>
<path class="st7" d="M321.6,376.6c0.8,0.6,1.6,1.2,2.4,1.9c1.1,1,2.2,2,3.2,3.1c0.2,0.2,0.3,0.4,0.4,0.6c-0.1,0.1-0.2,0.1-0.3,0.2
	c0,1.9-1.4,3.8,0.1,5.7c-0.5,0.2-1.2,0.4-1.3,0.8c-0.2,0.5,0.4,0.8,0.9,1c0.1,0,0.2,0.1,0.3,0.2c-0.7,0.4-1,1.1-1.1,1.8
	c-0.2,1.7-0.4,3.3-0.7,5c-0.7,3.8-1.5,7.7-2.3,11.5c-0.6,2.8-1.2,5.6-1.8,8.4c-0.2,1-0.7,1.9-0.9,2.9c-0.6,3.3-1.2,6.7-1.8,10
	c-0.2,1.1-0.5,2.3-0.1,3.5c0.4,1,0.2,2-0.5,2.9c-0.2,0.3-0.3,0.6-0.4,1c-0.3,1.4-0.5,2.7-0.8,4.1c-0.4,1.8-0.9,3.6-1.4,5.5
	c0.5,0.1,1,0.2,1.2,0.4c0.5,0.4,0.9,0.9,1.2,1.4c0.3,0.7-0.4,1-0.9,1.1c-0.4,0.1-0.9,0-1.3-0.1s-0.7-0.1-0.9,0.4
	c-0.3,1.2-0.7,2.4-1,3.6c-0.7,2.9-1.3,5.9-1.9,8.8c0,0.2,0.1,0.5,0.1,0.7c-1.1,0.4-2.1,0.9-3.2,1.3c0-0.5,0.1-0.9,0.1-1.4
	c0.1-1.5,0.8-3,0.4-4.6c-0.1-0.3,0.1-0.6,0.1-0.9c0-0.5,0.1-1.1,0.1-1.6c-0.2-1.4-0.5-2.7-0.7-4.1c-0.1-0.6,0-1.2-0.9-1.2
	c-0.1,0-0.3-0.2-0.4-0.4c-0.3-0.7-0.6-1.4-0.7-2.1c-0.1-0.8-0.1-1.6,0-2.4c0.1-1.2-0.1-2.5,0.3-3.6c0.7-2.1,0.9-4.4,2-6.4
	c0.9-1.7,1.9-3.4,3.2-4.8c0.5-0.5,1.1-0.9,0.9-1.7c1.5-0.1,1.7-0.4,1.1-1.8c0.2-0.4,0.5-0.8,0.6-1.2c0.3-1.4,0.6-2.9,0.8-4.3
	c0.2-1.3,0.4-2.6,0.6-3.9c0.3-1.8-0.6-3.3-1.2-4.9c-0.8-2-1-4-1.5-6c-0.2-1.2-0.1-2.4-0.8-3.5c-0.2-0.3-0.1-0.7-0.2-1
	c0-1.1-0.1-2.2-0.1-3.3c0-1.2-0.2-2.5-0.1-3.7c0-1.1,0.2-2.1,0.4-3.2c0.2-1.5,0.5-2.9,2.4-3.1l0.1-0.1c0.7-0.4,0.8-1,0.4-1.8
	c-0.1-0.2-0.3-0.5-0.3-0.7c0-0.6-0.2-1.3,0-1.8c0.6-1.2,1.5-2.2,2.2-3.3c0.4-0.5,0.8-0.9,1.2-1.4c0.4-0.6,0.8-1.2,1.3-1.7
	C320.6,377.7,321.1,377.1,321.6,376.6z M312.2,459.5c0-0.7-0.6-0.8-1.1-0.7c-0.3,0-0.6,0.5-0.8,0.8c0.4,0.3,0.7,0.7,1.1,0.8
	C311.9,460.6,312.2,460.1,312.2,459.5z M311.3,448.5c0.1,0,0.3,0,0.4,0c0.2-0.3,0.5-0.6,0.6-0.9c0.2-0.7-0.4-1-0.9-0.9
	c-0.3,0-0.8,0.5-0.8,0.9C310.6,447.8,311.1,448.2,311.3,448.5z M320.5,411.6c0.2-0.3,0.7-0.7,0.7-0.9c-0.1-0.4-0.5-0.9-0.8-0.9
	c-0.4,0-1,0.2-0.9,0.9C319.5,411.3,319.7,411.5,320.5,411.6z"/>
<path class="st8" d="M312.1,462.8c0-0.2-0.1-0.5-0.1-0.7c0.6-2.9,1.2-5.9,1.9-8.8c0.3-1.2,0.7-2.4,1-3.6c0.1-0.5,0.4-0.5,0.9-0.4
	c0.4,0.1,0.9,0.2,1.3,0.1c0.4-0.2,1.2-0.4,0.9-1.1c-0.2-0.5-0.7-1-1.2-1.4c-0.3-0.2-0.7-0.2-1.2-0.4c0.5-1.9,1-3.7,1.4-5.5
	c0.3-1.3,0.5-2.7,0.8-4.1c0.1-0.3,0.2-0.7,0.4-1c0.7-0.9,0.9-1.9,0.5-2.9c-0.5-1.2-0.1-2.3,0.1-3.5c0.6-3.3,1.1-6.7,1.8-10
	c0.2-1,0.7-1.9,0.9-2.9c0.6-2.8,1.2-5.6,1.8-8.4c0.8-3.8,1.6-7.7,2.3-11.5c0.3-1.6,0.5-3.3,0.7-5c0.1-0.8,0.3-1.4,1.1-1.8
	c0.6-0.6,1-1.2,0.2-2c-1.5-1.9-0.1-3.8-0.1-5.7c0-0.1,0.2-0.2,0.3-0.2c0.8,0.8,1.7,1.5,2.4,2.3c1.7,2,3.2,4.1,4.9,6.1
	c0.1,0.1,0,0.2,0.1,0.3c-0.2,0.2-0.6,0.4-0.6,0.7c-0.5,1.8-1,3.5-1.3,5.3c-0.9,4.7-1.8,9.5-2.7,14.2c-0.1,0.7-0.4,1-1,1.1
	c-0.9,0.3-1.1,0.8-0.6,1.6c0.3,0.5,0.9,1,0.8,1.4c-0.2,1.6-0.6,3.2-0.9,4.9c-0.1,0.4-0.5,0.6-0.7,1c-0.1,0.2-0.3,0.3-0.4,0.5
	c-0.7,0.4-0.5,1-0.5,1.6c0.2,0.4,0.3,0.9,0.5,1.3c0.1,0.3,0.3,0.6,0.2,0.9c-0.5,3.1-1.1,6.3-1.7,9.4c-0.5,2.9-1,5.7-1.6,8.6
	c-0.4,0.1-0.9,0.3-1.4,0.4c-0.2,0.1-0.4,0.2-0.4,0.3c0,0.6-0.2,1.3,0.5,1.6c0.7,0.3,0.9,0.9,0.8,1.6c-0.3,1.6-0.5,3.1-0.8,4.7
	c-0.3,1.7-0.5,3.3-0.8,5c-0.6,0.5-1.2,1-1.9,1.4c-1.7,1-3.5,2-5.3,3C314.2,461.9,313.2,462.3,312.1,462.8z M329.8,400
	c-0.1-0.7,0.4-1.5-0.7-1.9c-0.7-0.3-1.2,0.1-1.5,0.4c-0.2,0.3-0.2,1,0,1.3C328.2,400.7,329,400.4,329.8,400z"/>
<path class="st9" d="M253.6,464.4c-1.6-0.5-3.3-1-4.8-1.6c-2.6-1-5.2-2.1-7.7-3.3c-2.4-1.2-4.7-2.5-7-3.8c-2-1.2-4-2.4-5.8-3.8
	c-1.9-1.4-3.7-2.9-5.5-4.5c-0.9-0.7-1.6-1.6-2.4-2.3c0.1-0.3,0.4-0.5,0.4-0.8c0.4-2.2,0.8-4.4,1.3-6.6c0.1-0.4,0.3-0.7,0.6-1.2
	c0.4,0.5,0.6,0.8,0.8,1.1c0.9,1.2,0.9,1.2,1.9,0.3c0,0,0.1,0,0.2,0c0.1,0.1,0.2,0.2,0.3,0.3c0.3,0.3,0.5,0.9,0.8,1
	c0.8,0.1,1,0.6,1.2,1.2c0,0.2,0.5,0.4,0.6,0.3c0.6-0.4,0.9-0.1,1.3,0.3c0.4,0.4,0.7,0.8,1.2,1.1c0.2,0.2,0.6,0.4,0.8,0.3
	c0.7-0.4,1.2-0.3,1.8,0.3c0.1,0.1,0.4,0.2,0.5,0.1c1.1-0.4,1.6,0.4,2.4,0.9c1.1,0.8,1.9,2.3,3.6,1.3c0.1-0.1,0.3,0,0.5,0
	c0-0.2,0-0.4,0-0.6c0.1,0,0.2,0,0.4,0c0.4,0.8,1,1.3,2,1.2c0,0.1,0,0.2,0,0.4c-0.2,0.1-0.4,0.2-0.7,0.3c0,0.1,0.1,0.2,0.1,0.4
	c0.2-0.1,0.5-0.2,0.7-0.3c0.7,0.2,1.4,0.4,2.1,0.6c1,0.2,1.7,1.9,2.9,0.3c0.2,0.2,0.3,0.3,0.4,0.5c0.2,0.7,0.5,1,1.2,0.5
	c0.4-0.3,1.4,0.3,1.6,0.8c0.3,1.2,0.9,1.4,2.1,1c0.7-0.3,1.4-0.5,2.1-0.8c-0.2,1.2,0.7,1.1,1.1,1.1c0.4,0.6,0.6,1.2,1,1.3
	c1.4,0.4,2.8,0.7,4.2,1c-0.2,0.3-0.5,0.6-0.6,1c-0.2,0.3-0.2,0.7-0.4,1c-0.3,0.6-0.8,1.1-1.1,1.6c-0.3,0.9-0.5,1.8-1.5,2.2
	c-0.2,0.1-0.3,0.2-0.4,0.3c-0.3,0.5-0.6,0.6-1.1,0.4c-0.9-0.4-1.8-0.1-1.9,0.6C254.1,461.3,253.9,462.8,253.6,464.4z"/>
<path class="st10" d="M312.7,370.4c1.2,0.7,2.3,1.3,3.5,2.1c0.8,0.5,1.5,1.1,2.3,1.6c0.2,0.1,0.3,0.3,0.4,0.5
	c-1.1,0.6-2.1,1.3-3.2,1.9c-0.1,0.1-0.1,0.3-0.2,0.4c-0.4,0.5-0.8,0.9-1.2,1.4c-1.1,1.2-3.2,1.3-3.9,3.1c-0.1,0.1-0.3,0.2-0.4,0.3
	c-0.3,0.3-0.6,0.6-0.8,0.9c-0.6,1.1-1.2,2.3-1.8,3.4c-0.2,0.3-0.2,0.7-0.2,1c0,0.7,0.2,1.4,0.1,2c-0.3,1.8-0.3,3.4,1,4.9
	c0.8-0.4,1.3,0.2,1.6,0.9c0.4,0.8-0.1,1.3-1.4,1.8c0.2,0.7,0.4,1.4,0.6,2.1c0.7,2.8,1.4,5.5,2.2,8.3c0.6,2.5,1.3,5.1,1.9,7.6
	c0.3,1.2,0.4,2.4,0.4,3.6s-0.4,2.4-0.7,3.6c-0.3,1.5-0.5,3.1-1.2,4.4c-1,1.9-2.3,3.7-3.5,5.5c-0.4,0.6-0.8,1.3-1.2,2
	c-0.7,1.3-1.5,2.5-2.1,3.9c-0.5,1-0.8,2.2-0.9,3.3c-0.2,2-0.5,4-0.4,5.9c0.1,2.4,0.5,4.7,0.8,7.1c0.1,1.1,0,2.3,0.3,3.3
	c0.7,2.1,0.7,4.2,0.2,6.3c-0.1,0.7-0.2,1.3-0.2,2c-0.7,0.3-1.4,0.6-2.1,0.8c-1.1,0.3-2.2,0.5-3.2,0.8c0-0.3-0.1-0.7-0.1-1
	c0.2-1.6,0.9-3.2,0.1-4.8c-0.2-0.3,0.1-0.8,0.2-1.3c0.1-0.4,0.4-0.7,0.4-1.1c0.1-1.2,0.5-2.4-0.6-3.5c-0.2-0.2-0.1-0.8,0-1.2
	c0.1-0.4,0.5-0.9,0.4-1.2c-0.2-1-0.6-2-1-3c-0.2-0.5-0.4-0.9-0.6-1.4c-0.2-0.8-0.3-1.6-0.5-2.4c-0.2-0.9-0.5-1.7,0.3-2.4
	c0.2-0.1,0.3-0.4,0.3-0.6c0.3-1,0.5-2.1,0.8-3.1c0-0.2,0.1-0.5,0-0.7c-0.3-0.7-0.7-1.3-1.1-2c0.2-0.3,0.4-0.5,0.5-0.8
	c0.5-0.8,0.9-1,1.8-0.7c0.3,0.1,0.7,0.1,0.9-0.1c0.5-0.3,1-0.7,1.4-1.1c0.3-0.2,0.5-0.6,0.7-0.9c0.1-0.2,0.2-0.4,0.3-0.6
	c0.8-0.9,1.6-1.8,2.4-2.7c1.9-2.3,1.7-5.2,2.3-7.9c0.4-2.1,0.7-4.2,1.1-6.4c0.2-1.3,0.9-2.6,0.7-3.9c-0.3-2.4-0.8-4.7-1.6-6.9
	c-0.5-1.3-1.1-2.6-1.6-3.9c-0.3-0.9-0.8-1.7-1.1-2.6c-0.3-1-0.5-2-0.8-3c-0.4-1.4-1-2.8-1.3-4.3c-0.4-2.1-0.2-4.2-0.7-6.3
	c-0.3-1.3-0.1-2.8,0-4.2c0-0.7,0.4-1.4,0.6-2.2c0.1-0.3,0.2-0.6,0.2-0.8c0.1-0.5,0.2-1.1,0.4-1.5c0.4-0.8,0.9-1.6,1.4-2.4
	c0.8-0.8,1.4-2,2.3-2.4C309.5,371.4,310.8,370.2,312.7,370.4C312.6,370.4,312.7,370.4,312.7,370.4z"/>
<path class="st11" d="M304.7,465.5c0.1-0.7,0.1-1.4,0.2-2c0.5-2.1,0.4-4.2-0.2-6.3c-0.3-1-0.2-2.2-0.3-3.3c-0.3-2.4-0.7-4.7-0.8-7.1
	c-0.1-2,0.2-4,0.4-5.9c0.1-1.1,0.5-2.2,0.9-3.3c0.6-1.3,1.4-2.6,2.1-3.9c0.4-0.7,0.8-1.3,1.2-2c1.2-1.8,2.5-3.6,3.5-5.5
	c0.7-1.3,0.9-2.9,1.2-4.4c0.3-1.2,0.6-2.4,0.7-3.6c0-1.2-0.1-2.4-0.4-3.6c-0.6-2.6-1.2-5.1-1.9-7.6c-0.7-2.8-1.4-5.5-2.2-8.3
	c-0.2-0.7-0.4-1.4-0.6-2.1c1.3-0.5,1.8-1,1.4-1.8c-0.3-0.6-0.8-1.2-1.6-0.9c-1.3-1.5-1.3-3.1-1-4.9c0.1-0.6-0.1-1.3-0.1-2
	c0-0.3,0.1-0.7,0.2-1c0.6-1.2,1.2-2.3,1.8-3.4c0.2-0.3,0.5-0.6,0.8-0.9c0.1-0.1,0.4-0.2,0.4-0.3c0.7-1.8,2.7-1.8,3.9-3.1
	c0.4-0.5,0.8-0.9,1.2-1.4c0.1-0.1,0.1-0.3,0.2-0.4c1.1-0.7,2.1-1.3,3.2-1.9c0.9,0.7,1.8,1.3,2.8,2c-0.5,0.5-1,1-1.5,1.6
	s-0.8,1.2-1.3,1.7c-0.4,0.5-0.8,0.9-1.2,1.4c-0.8,1.1-1.6,2.1-2.2,3.3c-0.3,0.5-0.1,1.2,0,1.8c0,0.2,0.2,0.5,0.3,0.7
	c-0.2,0-0.5-0.1-0.7,0c-0.3,0.2-0.6,0.4-0.9,0.7c0.3,0.3,0.5,0.6,0.8,0.9c0.1,0.1,0.3,0.1,0.5,0.2l-0.1,0.1
	c-1.9,0.2-2.2,1.6-2.4,3.1c-0.1,1.1-0.3,2.1-0.4,3.2c0,1.2,0.1,2.5,0.1,3.7c0,1.1,0.1,2.2,0.1,3.3c0,0.3,0,0.8,0.2,1
	c0.7,1.1,0.6,2.3,0.8,3.5c0.4,2,0.7,4,1.5,6c0.6,1.5,1.5,3.1,1.2,4.9c-0.2,1.3-0.3,2.6-0.6,3.9c-0.2,1.4-0.5,2.9-0.8,4.3
	c-0.1,0.4-0.4,0.8-0.6,1.2c-0.4,0.1-1.1,0.1-1.3,0.4c-0.2,0.3,0.1,0.9,0.2,1.3c0.2,0.8-0.4,1.2-0.9,1.7c-1.3,1.4-2.3,3.1-3.2,4.8
	c-1.1,2-1.3,4.3-2,6.4c-0.4,1.1-0.2,2.4-0.3,3.6c0,0.8-0.1,1.6,0,2.4c0.1,0.7,0.4,1.4,0.7,2.1c0.1,0.2,0.2,0.4,0.4,0.4
	c0.9,0,0.8,0.6,0.9,1.2c0.2,1.4,0.5,2.7,0.7,4.1c0.1,0.5,0,1.1-0.1,1.6c0,0.3-0.2,0.6-0.1,0.9c0.4,1.6-0.3,3.1-0.4,4.6
	c0,0.5-0.1,0.9-0.1,1.4C307.5,464.5,306.1,465,304.7,465.5z M319.3,378.2c0-0.8-0.5-1.3-1.3-1.2c-0.6,0.1-1.1,0.2-1.1,1
	c0.1,0.8,0.6,1.6,1.3,1.4C318.8,379.3,319.4,379,319.3,378.2z"/>
<path class="st12" d="M322.3,457.1c0.3-1.7,0.5-3.3,0.8-5c0.3-1.6,0.5-3.1,0.8-4.7c0.1-0.7-0.1-1.3-0.8-1.6c-0.8-0.3-0.5-1-0.5-1.6
	c0-0.1,0.2-0.2,0.4-0.3c0.5-0.2,1.1-0.3,1.4-0.4c0.5-2.9,1.1-5.8,1.6-8.6c0.6-3.1,1.2-6.3,1.7-9.4c0.1-0.3-0.1-0.6-0.2-0.9
	c-0.1-0.4-0.3-0.9-0.5-1.3c0.1,0.1,0.3,0.3,0.4,0.4c0.5,0.5,1.2,0.5,1.7,0c0.6-0.5,0.5-1,0.2-1.5c-0.4-0.6-1.1-0.7-1.7-0.6
	c0.1-0.2,0.3-0.3,0.4-0.5c0.2-0.3,0.6-0.6,0.7-1c0.4-1.6,0.7-3.2,0.9-4.9c0.1-0.4-0.5-1-0.8-1.4c-0.5-0.8-0.4-1.3,0.6-1.6
	c0.6-0.2,0.9-0.5,1-1.1c0.9-4.8,1.7-9.5,2.7-14.2c0.3-1.8,0.8-3.6,1.3-5.3c0.1-0.3,0.4-0.5,0.6-0.7c0.7,1,1.5,2,2.1,3.1
	c0.9,1.5,1.6,3.1,2.4,4.6c-0.9,0-0.9,0.6-0.9,1.3c-0.1,0.1-0.1,0.2-0.2,0.4c-0.6,2.3-1.1,4.7-1.7,7l0.1,0.1
	c-0.1,0.2-0.1,0.5-0.2,0.7c-0.3,0.6-0.7,1.2-0.8,1.8c-0.4,2.2-0.7,4.5-1.1,6.7c-0.8,4.4-1.6,8.8-2.4,13.2c-0.7,3.8-1.6,7.6-2.4,11.4
	c-0.3,1.3-0.5,2.6-0.8,3.8c-0.7,2.2-1.5,4.4-2.2,6.7c-0.2,0.7-0.1,1.5-0.1,2.2v0.1C325.2,455,323.7,456,322.3,457.1z"/>
<path class="st9" d="M238.1,363.8c1.2-0.4,2.4-0.9,3.6-1.2c2.6-0.7,5.1-1.5,7.8-2c2.4-0.5,4.7-0.9,7.1-1.2c2-0.3,4.1-0.4,6.1-0.4
	c2.3-0.1,4.5-0.1,6.8-0.2c1.1,0,2.2,0.1,3.2,0.1c-0.1,0.7-0.3,1.4-0.5,2.2c-0.3,1.2,0.1,2,1.1,2.7c0.2,0.2,0.4,0.6,0.4,0.9
	c-0.1,1,0.5,2.1,1.4,2.4c0.7,0.2,1.9,2.3,1.9,3c-0.1,1.1,0,2.3,0,3.4c-0.2-0.1-0.4-0.2-0.5-0.3c-0.2-0.5-0.6-0.8-1.1-0.9
	c-0.3,0-0.5-0.2-0.7-0.4c-0.8-0.7-2.1-0.6-2.7-1.7c-0.1-0.1-0.3-0.1-0.5-0.2c-1-0.4-2.2-0.7-3.1-1.3c-0.7-0.5-1.4-0.7-2.1-0.4
	c-0.8,0.4-1.6,0.1-2.4,0.1c-0.7-0.1-1.4-0.2-2,0c-0.7,0.2-1.2,0-1.7-0.4c0-0.5-0.3-0.6-0.7-0.5c-0.9,0.1-1.8,0.3-2.7,0.5
	c-0.7,0.2-1.4,0.3-1.8-0.4c-0.5,0.3-0.9,0.6-1.3,0.9c-0.2-0.3-0.4-0.6-0.6-1c-0.2,0-0.6,0-0.9,0.1c-1.7,0.4-3.4,0.8-5.2,1.2
	c-0.4,0.1-1.2,0.2-1.3,0c-0.6-0.9-1.2-0.3-1.8-0.1c-1,0.4-1.9,1.3-3,0.8c-0.5,0.4-0.8,0.7-1.3,1c-0.4,0.2-0.8,0.1-1.2,0.3
	c-0.4,0.2-0.9,0.3-1-0.3c-0.1-0.8-0.2-1.6-0.1-2.4C237.7,366.6,237.9,365.2,238.1,363.8z"/>
<path class="st13" d="M240.4,444.4c0,0.2,0,0.4,0,0.6c-0.2,0-0.4-0.1-0.5,0c-1.7,1-2.6-0.5-3.6-1.3c-0.7-0.5-1.3-1.4-2.4-0.9
	c-0.1,0.1-0.4,0-0.5-0.1c-0.5-0.5-1.1-0.7-1.8-0.3c-0.2,0.1-0.6-0.1-0.8-0.3c-0.4-0.3-0.8-0.7-1.2-1.1s-0.7-0.7-1.3-0.3
	c-0.1,0.1-0.6-0.2-0.6-0.3c-0.1-0.7-0.4-1.1-1.2-1.2c-0.3-0.1-0.5-0.7-0.8-1c-0.1-0.1-0.2-0.2-0.3-0.3c-0.1,0-0.2,0-0.2,0
	c-1.1,0.9-1.1,0.9-1.9-0.3c-0.2-0.3-0.4-0.6-0.8-1.1c-0.3,0.5-0.5,0.9-0.6,1.2c-0.4,2.2-0.8,4.4-1.3,6.6c-0.1,0.3-0.3,0.6-0.4,0.8
	c-1-1.1-2.2-2.2-3.1-3.4c-1.5-1.9-2.9-3.8-4.1-5.9c-1-1.6-1.7-3.3-2.5-4.9c-0.3-0.7-0.5-1.5-0.8-2.2c0.2-0.3,0.5-0.6,0.6-0.9
	c0.4-2.1,0.8-4.3,1.2-6.4c0.3-1.6,0.5-3.3,0.8-4.9c1.2-0.4,2.4-0.8,3.6-1.2c0.2,1.1,0.5,2.1,0.7,3.2c0.3,1.1,0.5,2.2,0.8,3.4
	c0.1,0.2,0.3,0.4,0.5,0.6c0.2-0.2,0.3-0.3,0.5-0.5c0.1-0.1,0.2-0.3,0.4-0.7c0.3,0.9,0.5,1.6,0.8,2.2c0.2,0.4,0.6,0.6,0.9,1
	c0.3,0.9,0.3,2.1,1.6,2.6c0,0.3,0.1,0.8,0.2,1.2c0.1,0.2,0.2,0.7,0.3,0.7c0.9,0.2,1.3,1,1.9,1.4c1,0.6,1.4,1.6,2,2.5
	c0.1,0.2,0.3,0.5,0.5,0.5c1.2,0,1.4,0.9,1.7,1.7c0.3,0.7,1.4,1.5,2,1.4c0.1,0,0.2,0,0.4,0c-0.1,0.4-0.3,0.9-0.2,1.2
	c0.2,0.7,0.8,0.9,1.8,0.5c-0.1,0.9,0.5,1.3,1.2,1.8c1,0.7,2.2,1.3,2.9,2.2C237.9,443.3,239,444,240.4,444.4z"/>
<path class="st14" d="M212.4,416.5c-0.3,1.6-0.5,3.3-0.8,4.9c-0.4,2.1-0.8,4.3-1.2,6.4c-0.1,0.3-0.4,0.6-0.6,0.9
	c-0.4-1-0.9-2.1-1.2-3.1c-0.4-1.7-0.7-3.5-0.9-5.2c-0.4-3.5-0.3-7,0.4-10.5c0.2-1,0.4-2,0.6-3c0.1-0.3,0.5-0.7,0.8-0.8
	c1.6-0.5,2.8-1.3,2.9-3.1c0.1-0.9,0.3-1.8,0.1-2.6c-0.3-0.8-1.1-1.4-1.7-2.1c-0.2-0.2-0.4-0.5-0.4-0.8c0.5-3.2,1-6.4,2.1-9.4
	c1.2-3.1,2.6-6.1,4.6-8.7c1.7-2.3,3.5-4.5,5.7-6.3c0,0.2,0.1,0.4,0.1,0.6c-0.2,1.2-0.5,2.5-0.7,3.7c-0.5,2.9-1.1,5.7-1.5,8.6
	c0,0.3,0.2,0.6,0.3,0.9c0.3-0.2,0.6-0.3,0.8-0.5c0.5-0.7,1-1.4,1.5-2.1s1.1-1.4,1.8-2.3c0.4,0.8,0.6,1.4,0.9,2.1
	c0.8-0.5,1.2-1.8,2.5-1.6c-0.8,1-1.6,2.1-2.4,3.1c-0.4,0.5-0.7,1.1-1.5,1c-0.2,0-0.4,0.2-0.5,0.3c-0.9,1.6-1.9,3.1-2.7,4.7
	c-1.5,3-2.6,6.2-3.4,9.4c-0.7,3.1-1.1,6.3-0.7,9.5c0.2,2.5,0.4,5,0.7,7.5c0.1,0.5,0.4,1.1,0.7,1.5c0.2,0.4,0.7,0.6,0.8,1
	c0.4,1.2,0.8,2.5,1.1,3.8c-0.3-0.3-0.7-0.6-0.9-1c-0.3-0.6-0.5-1.4-0.8-2.2c-0.2,0.4-0.3,0.5-0.4,0.7c-0.2,0.2-0.3,0.4-0.5,0.5
	c-0.2-0.2-0.4-0.4-0.5-0.6c-0.3-1.1-0.5-2.2-0.8-3.4c-0.2-1.1-0.5-2.1-0.7-3.2c0.6-0.3,0.7-0.6,0.1-1c-0.2-0.1-0.3-0.3-0.4-0.5
	c-1.1-2-2.2-3.9-3.3-5.9c-2,1.4-2.8,5.3-1.6,9c0.2-0.1,0.5-0.1,0.7-0.2C211.9,416.7,212.1,416.6,212.4,416.5z M219.6,387.8
	c-0.5,0.1-0.9,0.1-1.3,0.3c-1.9,0.7-2.8,2.3-3.3,4s-0.8,3.5-1.2,5.2c-0.1,0.3,0,0.8,0.2,0.9c0.4,0.3,0.7,0.2,1.1-0.2
	c1.1-1.4,2.3-2.8,3.9-3.6c0.7-0.3,0.9-0.8,0.8-1.5C219.8,391.3,219.7,389.6,219.6,387.8z"/>
<path class="st15" d="M289.4,468.7c-1.2,0.1-2.5,0.4-3.7,0.4c-2.5,0.1-5,0.1-7.5,0c-1.4,0-2.9-0.3-4.3-0.4c0.1-0.5,0.1-1.1,0.3-1.6
	c0.3-1.3,0.3-1.3-0.9-2c-0.4-0.3-0.8-0.5-0.4-1.1c0.6,0.3,1.2,0.7,2,1.1c0.2-0.8,0.5-1.4,0.3-1.8c-0.1-0.6-0.6-1-1.3-0.9
	c-0.8,0.1-0.8,0.7-1,1.3c-0.1-0.3-0.3-0.7-0.2-0.9c0.3-0.9,1.2-0.8,1.9-1c0.2,0,0.5-0.1,0.6-0.2c0.6-0.9,1.1-1.7,1.7-2.6
	c0.1-0.2,0.3-0.3,0.4-0.5c0.7-0.6,1.5-1.2,2.2-1.8c0.3-0.3,0.3-1.1,0.7-1.2c0.8-0.4,1-1,1.3-1.7c0.2-0.3,0.4-0.6,0.7-0.8
	c1.1-0.8,1.2-1.6,0.4-2.6c-0.1-0.1-0.2-0.3-0.3-0.4c0.1-0.1,0.1-0.2,0.2-0.4c0.1,0.1,0.3,0.2,0.4,0.3c0.5,0.6,1,0.5,1.5,0.2
	c0.3-0.2,0.6-0.7,0.7-1.1c0-0.3-0.3-0.7-0.4-1c0.2,0.1,0.5,0.1,0.6,0.2c0.8,0.6,1.2,0.5,1.7-0.4c0.2-0.3,0.3-0.7,0.6-1
	c0.4-0.6,0.9-1.1,1.5-1.8c0.6,0.1,0.7-0.4,0.8-1.1c0.1-0.5,0.7-0.9,1-1.3c0.1,1.4,0.2,2.8,0.4,4.2c0.1,0.6,0.5,0.8,1,0.5
	c0.3-0.1,0.6-0.2,0.9-0.4c0.4,1,0.8,2,1.2,3c-0.6,1.6-1.3,3.3-1.9,4.9c-0.4,0.9-0.9,1.7-1.1,2.6c-0.7,3.5-1.4,7.1-2,10.7
	C289,468.3,289.2,468.5,289.4,468.7z"/>
<path class="st13" d="M228.5,382.5c-1.2-0.2-1.6,1.1-2.5,1.6c-0.3-0.7-0.6-1.3-0.9-2.1c-0.7,0.8-1.2,1.5-1.8,2.3
	c-0.5,0.7-1,1.4-1.5,2.1c-0.2,0.2-0.5,0.3-0.8,0.5c-0.1-0.3-0.3-0.6-0.3-0.9c0.5-2.9,1-5.7,1.5-8.6c0.2-1.2,0.5-2.5,0.7-3.7
	c0-0.2,0-0.4-0.1-0.6c2.1-1.9,4.3-3.7,6.8-5c2.3-1.2,4.5-2.4,6.8-3.5c0.5-0.3,1-0.4,1.5-0.6c-0.2,1.4-0.5,2.8-0.6,4.2
	c-0.1,0.8,0,1.6,0.1,2.4c0.1,0.6,0.5,0.4,1,0.3c0.4-0.1,0.8-0.1,1.2-0.3c0.4-0.2,0.8-0.6,1.3-1c1.1,0.5,2-0.4,3-0.8
	c0.6-0.2,1.2-0.8,1.8,0.1c0.2,0.2,0.9,0.1,1.3,0c1.7-0.4,3.4-0.8,5.2-1.2c0.3-0.1,0.6-0.1,0.9-0.1c0.2,0.4,0.4,0.7,0.6,1
	c0.4-0.3,0.8-0.6,1.3-0.9c0.4,0.7,1,0.6,1.8,0.4c0.9-0.2,1.8-0.4,2.7-0.5c0.4-0.1,0.7,0,0.7,0.5c-0.1,0.2-0.2,0.4-0.3,0.6
	c-0.1,0.2-0.2,0.4-0.4,0.5c-0.8,0.2-1.7,0.4-2.5,0.6c-1.3,0.3-2.5,0.7-3.7,1c-0.9,0.3-1.7,0.8-2.5,0.8c-0.8,0.1-1.3,0.4-1.6,1.1
	c-0.5,0.1-1,0.2-1.5,0.3c-0.4,0.1-0.8,0.4-1.1,0.3c-0.9-0.3-1.5,0.2-2.2,0.5c-0.5,0.2-1,0.5-1.5,0.7c-1.2,0.5-2.6,0.6-3.5,1.8
	c-0.3,0.4-1.1,0.9-1.4,0.8c-0.8-0.4-1.1,0.2-1.6,0.4c-1.1,0.6-2.3,1.2-3.5,1.8c-0.1,0-0.2,0-0.3,0c-1.1-0.1-1.3,0-1.3,1.1
	c-0.1,1.5-0.6,2-2.1,2C229,382.4,228.7,382.5,228.5,382.5z"/>
<path class="st6" d="M292.9,446.9c-0.3,0.1-0.6,0.2-0.9,0.4c-0.6,0.3-1,0.1-1-0.5c-0.2-1.4-0.3-2.8-0.4-4.2c0-0.2,0-0.5,0.1-0.7
	c0.9-2,1.7-4.1,2.7-6.1c0.8-1.5,1.3-3,1.7-4.5c0.9-4,1.8-8.1,2.6-12.1c0.5-2.3,0.9-4.6,1.3-7c0.4-2.3,0.6-4.6,1-6.9
	c0.5-2.9,0.8-5.8,0-8.7c-0.6-1.9-1.1-3.9-1.6-5.8c-0.4-1.5-0.7-2.9-1-4.4c-0.2-1.2-0.4-2.3-0.7-3.5c-0.4-1.6-0.1-3.4-1.2-4.8
	c0.5-0.9,0.7-1.9,0.2-2.9c1.1,0.3,1.4,0.1,1.8-0.8c0.4-0.8-0.3-1.1-0.7-1.6c0.4-0.3,0.8-0.6,1.1-1c0.4-0.7,0.6-1.4,0.9-2.1
	c0.4-1.1,0.8-2.1,1.8-2.8c0.6-0.5,0.8-1.4,1.2-2.2c1.2,0.5,2.4,0.9,3.6,1.4c-1.1,1.3-2.3,2.4-3.3,3.8c-1.7,2.3-3.1,4.8-2.5,7.9
	c0,0.4-0.1,0.9-0.1,1.3c-0.1,2.2-0.3,4.4,0.5,6.6c0.1,0.4,0,0.9,0,1.3s0,0.9-0.1,1.3c0,0.1,0,0.2,0,0.4c0.1,0.3,0.1,0.6,0.3,0.8
	c0.4,1.1,1,2.2,1.3,3.4c0.6,2.4,1,4.8,1.8,7.2c0.6,2.1,1.1,4.1,0.8,6.3c-0.3,2.2-0.5,4.5-0.8,6.8c-0.1,0.5-0.3,0.8-0.9,0.7
	c-0.4,0-0.8,0.1-1.2,0.2c-0.9,0.4-1.2,0.9-0.9,1.8c0.2,0.2,0.4,0.5,0.5,0.7l0,0c0.3,0.2,0.6,0.4,0.9,0.5c0.5,0.1,0.8,0.4,0.7,0.9
	c-0.4,2.4-0.8,4.8-1.4,7.1c-0.4,1.8-1.2,3.6-1.6,5.4c-0.4,1.7-1,3.2-2.3,4.5c-0.3,0.3-0.5,0.7-0.6,1c-0.5,1.1-0.8,2.4-1.4,3.4
	s-1,1.9-1.1,3c0,0.1-0.1,0.2-0.2,0.3c-0.8,0.7-0.7,1.6-0.7,2.5C293.1,445.9,292.9,446.4,292.9,446.9z"/>
<path class="st16" d="M277,373.6c0-1.1,0-2.3,0-3.4c0-0.7-1.2-2.8-1.9-3c-0.9-0.3-1.6-1.4-1.4-2.4c0-0.3-0.1-0.7-0.4-0.9
	c-1-0.8-1.3-1.5-1.1-2.7c0.2-0.7,0.3-1.4,0.5-2.2c1.6,0.1,3.3,0.2,4.9,0.4c2.5,0.3,5,0.7,7.5,1c-0.2,0.9-0.3,1.7-0.5,2.6
	c-0.1,0.7-0.5,1.5-0.3,2.1c0.4,1.4,0.6,2.7,0.6,4.1c0,0.6,0.2,0.9,0.7,1.2c0.4,0.2,0.9,0.5,1,0.9c0.3,0.8,0.5,1.6,0.7,2.4
	s0.4,1.6,0.7,2.2c0.4,0.8,1.1,1.5,1.6,2.3c-0.3,0-0.7,0.1-1,0.1c1.2,0.6,1,1.5,0.5,2.4c0,0.1,0,0.1-0.1,0.2
	c-0.3-0.1-0.6-0.2-0.9-0.4c-0.7-0.4-1.3-0.5-1.7,0.3c-0.1,0.3-0.4,0.4-0.5,0.5c-0.7-0.5-1.2-0.9-1.7-1.3c-0.4-0.5-0.9-0.9-1.3-1.5
	c-0.7-0.9-0.7-1-1.7-0.3c-0.1-0.1-0.2-0.2-0.4-0.4c-0.1-0.2-0.1-0.4-0.2-0.5s-0.2-0.1-0.4-0.2c-0.2,0-0.5,0-0.7,0
	c-0.1-0.1-0.2-0.1-0.4-0.2c0.4-0.3,0.7-0.7,1.1-1c-0.4-0.2-0.8-0.4-1.2-0.6c-0.4-0.2-0.9-0.4-1.3-0.5
	C277.7,374.4,277.4,374,277,373.6z M275.5,364.1c-0.8,0-1.2,0.3-1.1,1.2c0,0.9,0.4,1.4,1.3,1.2c0.4-0.1,0.8-0.7,1-1.2
	C276.8,364.6,276.2,364.1,275.5,364.1z"/>
<path class="st16" d="M253.6,464.4c0.3-1.6,0.5-3.1,0.8-4.7c0.1-0.7,1-0.9,1.9-0.6c0.6,0.2,0.9,0.2,1.1-0.4c0.1-0.1,0.2-0.3,0.4-0.3
	c1.1-0.4,1.2-1.3,1.5-2.2c0.2-0.6,0.7-1.1,1.1-1.6c0.2-0.3,0.2-0.7,0.4-1c0.2-0.3,0.4-0.6,0.6-1c0.2-0.9,1-1.2,1.8-1.5
	c1.6-0.6,3.1-1.3,4.6-1.9c0.4,0.3,0.7,0.5,1.1,0.8c0.7,0.4,1.4,1.1,2.1,1c0.8-0.1,1.3,0.1,1.6,0.7c-0.1,0.9-0.2,1.8-0.4,2.7
	c-0.9,0.8-1.5,2-2.9,2c-0.3,0-0.7,0.4-0.9,0.8c-0.6,0.9-1.1,1.8-1.8,2.7c-0.3,0.4-0.9,0.5-1.1,0.9c-0.4,0.9-0.8,1.9-1,2.9
	c-0.2,1.2-0.2,2.4-0.2,3.6c-1.6-0.4-3.3-0.7-4.9-1.2C257.6,465.6,255.6,465,253.6,464.4z"/>
<path class="st17" d="M289.4,468.7c-0.1-0.2-0.4-0.4-0.3-0.6c0.6-3.6,1.3-7.1,2-10.7c0.2-0.9,0.8-1.7,1.1-2.6
	c0.7-1.6,1.3-3.3,1.9-4.9c0.5-0.4,0.9-0.9,1.5-1.1c0.8-0.2,1.8-0.1,2.6-0.2c0.2,0.5,0.4,0.9,0.6,1.4c0.4,1,0.8,2,1,3
	c0.1,0.3-0.3,0.8-0.4,1.2c-0.1,0.4-0.2,1,0,1.2c1.2,1,0.7,2.3,0.6,3.5c0,0.4-0.3,0.7-0.4,1.1s-0.4,1-0.2,1.3
	c0.8,1.7,0.1,3.2-0.1,4.8c0,0.3,0.1,0.7,0.1,1c-1.9,0.4-3.8,0.8-5.7,1.2c-1.2,0.2-2.3,0.3-3.5,0.4
	C289.9,468.8,289.6,468.7,289.4,468.7z"/>
<path class="st18" d="M326.6,453.9c0-0.7-0.1-1.5,0.1-2.2c0.7-2.2,1.5-4.4,2.2-6.7c0.4-1.2,0.6-2.5,0.8-3.8
	c0.8-3.8,1.7-7.6,2.4-11.4c0.9-4.4,1.6-8.8,2.4-13.2c0.4-2.2,0.7-4.5,1.1-6.7c0.1-0.6,0.6-1.2,0.8-1.8c0,0.1,0,0.2,0,0.3
	c0.1,0.7,0.7,0.7,1.1,0.5c0.3-0.1,0.6-0.6,0.6-0.9c0-0.2-0.5-0.5-0.8-0.6c-0.2-0.1-0.5,0-0.7,0l-0.1-0.1c0.6-2.3,1.1-4.7,1.7-7
	c0-0.1,0.1-0.3,0.2-0.4c0.6,0.3,0.9,1.4,1.8,0.7c0.1,0.3,0.3,0.6,0.4,0.9c-0.1,0.2-0.4,0.3-0.4,0.5c-0.7,3.6-1.3,7.1-2,10.7
	c-0.8,4.4-1.6,8.9-2.4,13.3c-0.5,3-1.1,5.9-1.6,8.9c-0.2,1.4-0.2,1.4-1.6,1.2c-0.7-0.1-1.1,0.3-1.1,0.8c0,0.3,0.5,0.7,0.8,0.9
	c0.2,0.1,0.6,0.1,1.1,0.1c-0.1,0.8-0.1,1.6-0.3,2.3c-0.5,2.6-1.1,5.2-1.7,7.9c-0.1,0.3,0.1,0.7,0.2,1c-1.1,1.1-2.2,2.3-3.4,3.3
	C327.9,453,327.3,453.4,326.6,453.9z"/>
<path class="st19" d="M342.5,406.2c0.5,2.4,1.2,4.8,1.6,7.3c0.3,2.1,0.5,4.3,0.5,6.4c0,3.5-0.4,6.9-1.4,10.2c-1,3.2-2.2,6.4-4,9.3
	c-1.1,1.8-2.3,3.6-3.5,5.3c-0.1,0.2-0.3,0.3-0.5,0.4c0-0.3-0.1-0.7,0-1c0.7-3.7,1.3-7.4,2.1-11c0.4-1.8,0.9-3.6,1.3-5.4
	c0.3-1.4,0.4-2.9,0.6-4.4c0.9-5.3,1.9-10.7,2.8-16C342,407,342.3,406.6,342.5,406.2z"/>
<path class="st20" d="M264.5,467.4c0.1-1.2,0-2.4,0.2-3.6c0.2-1,0.6-2,1-2.9c0.2-0.4,0.8-0.6,1.1-0.9c0.6-0.9,1.1-1.8,1.8-2.7
	c0.2-0.3,0.6-0.8,0.9-0.8c1.4-0.1,2-1.3,2.9-2c0.9,0,1.7-0.2,2.4-0.8c0.3-0.2,0.7-0.4,1-0.4c0.9,0,1.7-0.1,2.4-0.7
	c0.2-0.2,0.5-0.3,0.8-0.4c0.6-0.1,0.9-0.5,1.1-1c0.1-0.3,0.4-0.7,0.7-0.7c0.2-0.1,0.6,0.3,0.9,0.5c0.1-0.3,0.2-0.6,0.3-0.9
	c0.1,0.1,0.2,0.3,0.3,0.4c0.9,1,0.7,1.8-0.4,2.6c-0.3,0.2-0.5,0.5-0.7,0.8c-0.4,0.6-0.6,1.3-1.3,1.7c-0.3,0.2-0.4,0.9-0.7,1.2
	c-0.7,0.7-1.4,1.2-2.2,1.8c-0.2,0.1-0.3,0.3-0.4,0.5c-0.6,0.9-1.1,1.8-1.7,2.6c-0.1,0.1-0.4,0.2-0.6,0.2c-0.7,0.1-1.6,0.1-1.9,1
	c-0.1,0.3,0.1,0.6,0.2,0.9c0,0.1,0,0.2,0,0.4c-0.4,0.6,0,0.8,0.4,1.1c1.1,0.7,1.2,0.7,0.9,2c-0.1,0.5-0.2,1-0.3,1.6
	c-1.9-0.2-3.9-0.4-5.8-0.7C266.8,467.9,265.7,467.6,264.5,467.4z M265.4,463.8c0.1,1.1,0.9,1,1.3,1c0.2,0,0.6-0.6,0.6-0.8
	c-0.2-0.4-0.6-0.8-1-1C266.2,463,265.7,463.5,265.4,463.8z"/>
<path class="st20" d="M289.9,378.2c-0.5-0.8-1.2-1.5-1.6-2.3c-0.4-0.7-0.5-1.5-0.7-2.2c-0.2-0.8-0.4-1.7-0.7-2.4
	c-0.2-0.4-0.6-0.7-1-0.9c-0.5-0.3-0.7-0.6-0.7-1.2c0-1.4-0.2-2.8-0.6-4.1c-0.2-0.6,0.2-1.4,0.3-2.1c0.2-0.9,0.3-1.7,0.5-2.6
	c2.1,0.4,4.3,0.8,6.4,1.3c0.5,0.1,1,0.2,1.4,0.3c-0.3,1.5-0.7,3-0.8,4.5c-0.1,1.1-0.1,2.3,0.3,3.3c0.5,1.6,2.3,2.9,1.6,5
	c0,0.1,0.1,0.2,0.1,0.3c0.2,1.1,0.3,2.3,0.5,3.4c-0.8,0.7-0.5,1.6-0.4,2.5c-0.5-0.2-1.2-0.2-1.6-0.5s-0.6-0.8-1.3-0.6
	c-0.2,0-0.7-0.5-0.8-0.8C290.5,378.4,290.3,378.2,289.9,378.2z M286.3,366.9c0.1,0.1,0.1,0.1,0.2,0.2c-0.2,0.8,0.4,1,0.8,0.9
	s0.7-0.6,1.1-1c-0.3-0.3-0.6-0.9-1-0.9C287,366,286.7,366.6,286.3,366.9z"/>
<path class="st21" d="M342.5,406.2c-0.2,0.4-0.4,0.8-0.5,1.2c-1,5.3-1.9,10.7-2.8,16c-0.3,1.4-0.3,2.9-0.6,4.4
	c-0.4,1.8-0.9,3.6-1.3,5.4c-0.7,3.7-1.4,7.3-2.1,11c-0.1,0.3,0,0.7,0,1c-0.8,1.1-1.7,2.1-2.5,3.1c-0.2,0.3-0.5,0.5-0.8,0.8
	c-0.1-0.3-0.3-0.7-0.2-1c0.5-2.6,1.1-5.2,1.7-7.9c0.2-0.7,0.2-1.5,0.3-2.3c-0.5,0-0.8,0.1-1.1-0.1c-0.4-0.2-0.8-0.6-0.8-0.9
	c-0.1-0.6,0.4-0.9,1.1-0.8c1.4,0.2,1.3,0.2,1.6-1.2c0.5-3,1.1-5.9,1.6-8.9c0.8-4.4,1.6-8.9,2.4-13.3c0.7-3.6,1.3-7.1,2-10.7
	c0-0.2,0.3-0.4,0.4-0.5C341.3,403,341.9,404.6,342.5,406.2z"/>
<path class="st15" d="M294.7,378.4c-0.1-1.1-0.3-2.3-0.5-3.4c0-0.1-0.1-0.2-0.1-0.3c0.8-2.1-1-3.3-1.6-5c-0.3-1-0.4-2.2-0.3-3.3
	c0.1-1.5,0.5-3,0.8-4.5c2.1,0.7,4.1,1.3,6.2,2c0.8,0.3,1.6,0.7,2.4,1c-0.4,0.7-0.6,1.7-1.2,2.2c-1,0.8-1.4,1.8-1.8,2.8
	c-0.3,0.7-0.5,1.5-0.9,2.1c-0.2,0.4-0.7,0.6-1.1,1c-0.8-0.4-1.3,0.1-1.5,0.7c-0.1,0.5-0.5,1.3,0.4,1.6c0.5,1,0.3,1.9-0.2,2.9
	C295.1,378.3,294.9,378.4,294.7,378.4z"/>
<path class="st17" d="M299.5,378.1c-0.6-3.1,0.8-5.6,2.5-7.9c1-1.3,2.2-2.5,3.3-3.8c2.3,1.2,4.7,2.4,7,3.6c0.2,0.1,0.3,0.2,0.5,0.4
	h-0.1c-1.8-0.2-3.1,1-4.6,1.7c-0.9,0.4-1.6,1.6-2.3,2.4c-0.3,0.2-0.7,0.3-1,0.6c-0.7,0.5-1.2,1.3-2,1.7
	C301.7,377.3,300.6,377.6,299.5,378.1z"/>
<path class="st21" d="M340.4,400.5c-0.9,0.6-1.2-0.4-1.8-0.7c0-0.6,0-1.2,0.9-1.3C339.7,399.2,340,399.9,340.4,400.5z"/>
<path class="st10" d="M315.4,388.9c-0.2-0.1-0.4-0.1-0.5-0.2c-0.3-0.3-0.5-0.6-0.8-0.9c0.3-0.2,0.6-0.5,0.9-0.7c0.2-0.1,0.5,0,0.7,0
	C316.2,387.9,316.1,388.5,315.4,388.9z"/>
<path class="st10" d="M312.2,459.5c0,0.7-0.3,1.1-0.8,1c-0.4-0.1-0.7-0.5-1.1-0.8c0.3-0.3,0.5-0.8,0.8-0.8
	C311.5,458.7,312.2,458.8,312.2,459.5z"/>
<path class="st10" d="M313.4,428.9c-0.1-0.5-0.4-1-0.2-1.3c0.2-0.3,0.8-0.3,1.3-0.4C315.1,428.4,314.9,428.8,313.4,428.9z"/>
<path class="st10" d="M311.3,448.5c-0.3-0.3-0.7-0.7-0.7-1s0.5-0.8,0.8-0.9c0.5-0.1,1,0.2,0.9,0.9c-0.1,0.3-0.4,0.6-0.6,0.9
	C311.6,448.5,311.4,448.5,311.3,448.5z"/>
<path class="st18" d="M327.5,388.1c0.9,0.7,0.5,1.4-0.2,2c-0.1-0.1-0.2-0.2-0.3-0.2c-0.5-0.2-1.1-0.5-0.9-1
	C326.3,388.4,327,388.3,327.5,388.1z"/>
<path class="st10" d="M320.5,411.6c-0.8-0.1-1-0.3-1-0.9c-0.1-0.7,0.5-0.9,0.9-0.9c0.3,0,0.8,0.5,0.8,0.9
	C321.2,410.9,320.7,411.3,320.5,411.6z"/>
<path class="st18" d="M327.5,421.6c0.7-0.1,1.3,0,1.7,0.6c0.3,0.5,0.4,1-0.2,1.5c-0.5,0.4-1.3,0.4-1.7,0c-0.1-0.1-0.3-0.3-0.4-0.4
	C327,422.6,326.8,422,327.5,421.6z"/>
<path class="st18" d="M329.8,400c-0.8,0.4-1.6,0.7-2.1-0.2c-0.2-0.3-0.2-1,0-1.3c0.3-0.4,0.7-0.7,1.5-0.4
	C330.1,398.5,329.7,399.3,329.8,400z"/>
<path class="st22" d="M240.4,444.4c-1.4-0.4-2.6-1.1-3.6-2.3c-0.8-0.9-1.9-1.5-2.9-2.2c-0.7-0.4-1.3-0.8-1.2-1.8
	c0-0.5,0.1-1.2-0.2-1.6c-0.2-0.3-0.9-0.1-1.4-0.2c-0.1,0-0.2,0-0.4,0c0.7-0.9,0.5-1.9,0.4-3c0-0.1,0-0.2,0-0.3c0-0.4,0-0.9,0-1.3
	c-0.1-0.8-0.1-1.6-0.2-2.4c0.7,0.6,1.3,1.3,2,1.9c0.8-0.9,1.6-0.9,2.3,0.1c0.3,0.4,0.6,0.8,0.9,1.2c0.5,0.6,1,1.1,1.6,1.7
	c0.7-1.5,0.9-1.5,1.9-0.5c0.3,0.3,0.7,0.4,1,0.7c0.5,0.6,0.8,0.3,1.1-0.1c0,0.4,0.1,0.7,0.1,1c0.1,0,0.2,0,0.2,0
	c0.1-0.2,0.2-0.4,0.3-0.7c0.4,0.2,0.8,0.4,1.2,0.7c0.2,0.1,0.5,0.3,0.6,0.5c0.5,1.1,1.3,1.4,2.3,0.9c0.1,0.2,0.2,0.4,0.2,0.6
	c0.2,1,0.4,1.1,1.2,0.5c0.5-0.3,0.9-0.4,1.5-0.1c0.5,0.3,1.1,0.6,1.7,0.8c1.4,0.4,2.8,0.8,4.2,1.1c0.2,0,0.5,0,0.7-0.1
	s0.4-0.4,0.5-0.6c0.9,0.4,2.1,0.6,2.8,1.3c0.6,0.6,1,0.5,1.5,0.3c0,0.3,0.1,0.6-0.1,0.8c-0.7,0.7-0.4,1.5-0.5,2.3
	c-0.2,0.4-0.4,0.9-0.7,1.3c-0.3,0.5-0.7,1.1-1.2,1.3c-0.8,0.3-1.2,0.8-1.5,1.5c-0.1,0.2-0.5,0.6-0.6,0.5c-0.9-0.2-0.9,0.4-1,0.9
	c-0.7,0.3-1.4,0.5-2.1,0.8c-1.2,0.4-1.7,0.2-2.1-1c-0.1-0.5-1.1-1.1-1.6-0.8c-0.8,0.5-1,0.2-1.2-0.5c0-0.1-0.2-0.3-0.4-0.5
	c-1.2,1.5-2-0.1-2.9-0.3c-0.7-0.2-1.4-0.4-2.1-0.6c-0.1-0.1-0.1-0.2-0.2-0.4c0-0.1,0-0.2,0-0.4c1.3-1,1.5-1.7,0.6-2.5
	c-0.4-0.3-1-0.6-1.4-0.5c-0.9,0.1-1.1,0.9-1.1,1.8C240.7,444.4,240.6,444.4,240.4,444.4z"/>
<path class="st23" d="M255.2,449.2c0.1-0.5,0.1-1.2,1-0.9c0.2,0,0.5-0.3,0.6-0.5c0.3-0.7,0.8-1.2,1.5-1.5c0.5-0.2,0.9-0.8,1.2-1.3
	c0.3-0.4,0.4-0.9,0.7-1.3c0.5,0,1.1,0,1.6,0.1s0.7,0,1-0.4c0.2-0.3,0.7-0.5,1.1-0.8c0.1-0.1,0.4-0.1,0.5-0.2c0.7-1.2,2.1-1.3,3-2.2
	c0.3-0.3,0.8-0.3,1.2-0.5c0.9-0.6,1.7-1.4,2.6-2c0.1-0.1,0.3-0.1,0.5-0.2c0,0.3-0.2,0.6-0.1,0.9c0.1,1.1-0.1,2.2-0.5,3.3
	c-0.4,1-0.5,2-0.9,3c-0.3,1-0.7,1.9-1.2,3c0,0,0.1,0.1,0.3,0.2c-0.2,0.2-0.4,0.4-0.6,0.6c-0.3,0.3-0.5,0.6-0.8,0.9
	c-1.5,0.7-3.1,1.4-4.6,1.9c-0.8,0.3-1.5,0.5-1.8,1.5c-1.4-0.3-2.8-0.6-4.2-1c-0.4-0.1-0.6-0.7-1-1.3
	C255.9,450.3,255,450.4,255.2,449.2z M262.2,447.1c0-0.6-0.7-1.4-1.2-1.4c-0.6,0-1.3,0.9-1.3,1.5c0.1,0.8,0.6,0.9,1.3,1
	C261.7,448.2,262.2,447.7,262.2,447.1z"/>
<path class="st23" d="M240.8,444.4c0-0.8,0.2-1.6,1.1-1.8c0.4-0.1,1.1,0.2,1.4,0.5c0.9,0.8,0.7,1.5-0.6,2.5
	C241.8,445.7,241.2,445.3,240.8,444.4z"/>
<path class="st13" d="M242.8,446c0.1,0.1,0.1,0.2,0.2,0.4c-0.2,0.1-0.5,0.2-0.7,0.3c0-0.1-0.1-0.2-0.1-0.4
	C242.3,446.2,242.5,446.1,242.8,446z"/>
<path class="st24" d="M299.5,378.1c1.1-0.4,2.2-0.8,3.3-1.3c0.7-0.4,1.3-1.1,2-1.7c0.3-0.2,0.7-0.4,1-0.6c-0.5,0.8-1,1.6-1.4,2.4
	c-0.2,0.5-0.3,1-0.4,1.5c-0.1,0.3-0.2,0.6-0.2,0.8c-0.2,0.7-0.5,1.4-0.6,2.2c-0.1,1.4-0.3,2.9,0,4.2c0.5,2.1,0.3,4.2,0.7,6.3
	c0.3,1.5,0.9,2.9,1.3,4.3c0.3,1,0.5,2,0.8,3c0.3,0.9,0.8,1.7,1.1,2.6c0.5,1.3,1.1,2.6,1.6,3.9c0.8,2.2,1.3,4.6,1.6,6.9
	c0.1,1.2-0.5,2.6-0.7,3.9c-0.4,2.1-0.7,4.2-1.1,6.4c-0.5,2.7-0.3,5.6-2.3,7.9c-0.8,0.9-1.6,1.8-2.4,2.7c-0.1,0.2-0.2,0.4-0.3,0.6
	c-0.2,0.3-0.4,0.7-0.7,0.9c-0.4,0.4-0.9,0.8-1.4,1.1c-0.2,0.1-0.6,0.1-0.9,0.1c-0.9-0.3-1.3-0.1-1.8,0.7c-0.1,0.2-0.3,0.5-0.5,0.8
	c0.4,0.6,0.8,1.3,1.1,2c0.1,0.2,0.1,0.4,0,0.7c-0.2,1-0.5,2.1-0.8,3.1c-0.1,0.2-0.2,0.5-0.3,0.6c-0.8,0.7-0.6,1.5-0.3,2.4
	c0.2,0.8,0.3,1.6,0.5,2.4c-0.9,0-1.8,0-2.6,0.2c-0.5,0.1-1,0.7-1.5,1.1c-0.4-1-0.8-2-1.2-3c0.1-0.5,0.2-1,0.2-1.5
	c0-0.9,0-1.8,0.7-2.5c0.1-0.1,0.1-0.2,0.2-0.3c0.1-1.1,0.6-2.1,1.1-3c0.6-1.1,0.9-2.3,1.4-3.4c0.2-0.4,0.4-0.8,0.6-1
	c1.2-1.3,1.9-2.8,2.3-4.5c0.4-1.8,1.1-3.6,1.6-5.4c0.5-2.3,0.9-4.7,1.4-7.1c0.1-0.5-0.2-0.7-0.7-0.9c-0.3-0.1-0.6-0.3-0.9-0.5
	c0.3,0,0.5,0,0.8,0c0.7-0.1,1.1-0.6,1.1-1.2c0-0.4-0.5-0.7-0.8-1c-0.2-0.2-0.5-0.2-0.7-0.2c0.4-0.1,0.8-0.2,1.2-0.2
	c0.6,0,0.9-0.2,0.9-0.7c0.3-2.3,0.5-4.5,0.8-6.8c0.3-2.2-0.1-4.2-0.8-6.3c-0.7-2.4-1.1-4.8-1.8-7.2c-0.3-1.2-0.9-2.2-1.3-3.4
	c-0.1-0.3-0.2-0.6-0.3-0.8c0.2,0.2,0.5,0.3,0.7,0.5c0.6,0.5,1,0,1.4-0.3c0.3-0.3,0.4-0.8-0.1-1.2c-0.8-0.6-1.5-0.4-2,0.7
	c0-0.4,0-0.9,0.1-1.3c0-0.4,0.1-0.9,0-1.3c-0.7-2.2-0.6-4.4-0.5-6.6C299.4,378.9,299.4,378.5,299.5,378.1z"/>
<path class="st10" d="M319.3,378.2c0.1,0.7-0.4,1.1-1,1.2c-0.7,0.1-1.3-0.6-1.3-1.4c-0.1-0.8,0.5-0.9,1.1-1
	C318.8,376.9,319.3,377.4,319.3,378.2z"/>
<path class="st21" d="M336.8,407.3c0.2,0,0.5-0.1,0.7,0c0.3,0.2,0.8,0.4,0.8,0.6c0,0.3-0.3,0.8-0.6,0.9c-0.4,0.2-1,0.2-1.1-0.5
	c0-0.1,0-0.2,0-0.3C336.6,407.8,336.7,407.5,336.8,407.3z"/>
<path class="st23" d="M277,373.6c0.4,0.4,0.7,0.8,1.1,1.2c0,1.1-0.1,2.2,0,3.3c0.1,0.8-0.2,1.8,0.7,2.4c0.1,0,0.1,0.3,0,0.3
	c-0.6,0.8-0.1,1.6,0,2.4c-0.5,0-1,0.1-1.5,0.1c-0.3,0-0.6,0.1-0.8,0c-0.7-0.4-1.4-0.9-2.2-1.4c-0.4-0.2-0.6-0.2-0.7,0.4
	c0,0.3-0.2,0.7-0.4,0.8c-0.3,0.1-0.7-0.1-1-0.2s-0.5-0.4-0.8-0.5c0-0.3,0-0.6,0-0.9c-0.1-0.3-0.1-0.7-0.3-0.9
	c-0.6-0.8-0.8-1.8-1.4-2.6c-0.9-1.2-1.3-2.8-1.8-4.2c-0.4-1.1-1.4-1.6-2.4-1c-0.8,0.5-1.6,0.6-2.4,0c-0.1-0.1-0.5-0.1-0.5,0
	c-0.7,0.9-1.3-0.2-2-0.1c-0.4,0.1-0.9-0.2-1.4-0.2c-0.7,0-1.4,0.2-2.1,0.2c-1,0-1.9,0-2.9,0c-0.3,0-0.6-0.1-0.8-0.3
	c-0.9-0.6-2.5-0.5-3.1,0.4c-0.4,0.6-0.7,0.5-1.1,0.1c0.3-0.7,0.8-1,1.6-1.1c0.9-0.1,1.7-0.6,2.5-0.8c1.2-0.4,2.5-0.7,3.7-1
	c0.8-0.2,1.7-0.4,2.5-0.6c0.2,0,0.3-0.3,0.4-0.5s0.2-0.4,0.3-0.6c0.5,0.5,1,0.6,1.7,0.4c0.6-0.2,1.4,0,2,0c0.8,0.1,1.5,0.3,2.4-0.1
	c0.7-0.3,1.4-0.1,2.1,0.4c0.9,0.6,2,0.9,3.1,1.3c0.2,0.1,0.4,0.1,0.5,0.2c0.6,1.1,1.9,1,2.7,1.7c0.2,0.2,0.5,0.3,0.7,0.4
	c0.5,0.1,0.9,0.3,1.1,0.9C276.6,373.4,276.8,373.5,277,373.6z"/>
<path class="st25" d="M231,429.4c0.1,0.8,0.2,1.6,0.2,2.4c0,0.4,0,0.9,0,1.3c0,0.1-0.1,0.2,0,0.3c0.2,1,0.3,2-0.4,3
	c-0.6,0.1-1.7-0.7-2-1.4c-0.3-0.8-0.5-1.7-1.7-1.7c-0.2,0-0.3-0.3-0.5-0.5c-0.6-0.9-1-1.8-2-2.5c-0.6-0.4-1-1.3-1.9-1.4
	c-0.1,0-0.2-0.4-0.3-0.7c-0.1-0.5-0.1-0.9-0.2-1.2c-1.3-0.5-1.3-1.7-1.6-2.6c-0.4-1.3-0.7-2.6-1.1-3.8c-0.1-0.4-0.6-0.7-0.8-1
	c-0.3-0.5-0.6-1-0.7-1.5c-0.3-2.5-0.5-5-0.7-7.5c-0.3-3.2,0-6.4,0.7-9.5c0.8-3.3,1.8-6.4,3.4-9.4c0.8-1.6,1.8-3.1,2.7-4.7
	c0.1-0.2,0.3-0.3,0.5-0.3c0.8,0.1,1.1-0.5,1.5-1c0.8-1,1.6-2.1,2.4-3.1c0.2-0.1,0.5-0.2,0.7-0.2c1.5,0,2-0.5,2.1-2
	c0.1-1.1,0.2-1.2,1.3-1.1c0.1,0,0.3,0,0.3,0c1.2-0.6,2.3-1.2,3.5-1.8c0.5-0.3,0.8-0.8,1.6-0.4c0.3,0.1,1-0.4,1.4-0.8
	c0.9-1.1,2.3-1.3,3.5-1.8c-0.1,0.4-0.1,0.9-0.2,1.5c0.6-0.2,0.9-0.3,1.4-0.4c0.1,0.6-0.1,1.1-0.7,0.9c-0.8-0.2-1.3,0.3-1.6,0.8
	c-0.5,0.8-0.9,1.7-1.4,2.5c-0.4,0.7-0.5,1.8-1.7,1.8c-0.1,0-0.1,0.1-0.2,0.2c-1.2,1.2-2.4,2.3-3.6,3.5c-0.2,0.1-0.5,0.1-0.7,0.3
	c-1.1,1.1-2.3,2.2-3.3,3.5c-1.1,1.4-2.1,3-3.1,4.5c-1.2,1.8-2.8,3.3-3.1,5.5c0,0.1-0.1,0.2-0.1,0.3c-0.4,1-1,2-1.3,3
	c-0.2,0.7-0.4,1.5-0.4,2.3c0,0.6,0.2,1.2,0.3,1.8c0.2,1.7-0.3,3.5,0.5,5.3c0.7,1.6,0.7,3.4,1.2,5.1c0.4,1.6,1,3.2,1.5,4.8
	c0.1,0.2,0.5,0.5,0.8,0.5c1.4,0,2.3,1.1,1.7,2.4c-0.4,0.8,0,1.3,0.2,1.8s0.5,1,0.8,1.5C230.1,428.5,230.6,428.9,231,429.4z"/>
<path d="M212.4,416.5c-0.3,0.1-0.6,0.1-0.8,0.2s-0.5,0.1-0.7,0.2c-1.2-3.8-0.4-7.6,1.6-9c1.1,2,2.2,3.9,3.3,5.9
	c0.1,0.2,0.3,0.3,0.4,0.5c0.6,0.4,0.5,0.8-0.1,1C214.8,415.7,213.6,416.1,212.4,416.5z"/>
<path class="st9" d="M231.2,436.4c0.5,0,1.2-0.1,1.4,0.2c0.3,0.4,0.1,1.1,0.2,1.6c-1.1,0.4-1.7,0.2-1.8-0.5
	C230.9,437.3,231.1,436.8,231.2,436.4z"/>
<path d="M219.6,387.8c0.1,1.8,0.2,3.5,0.3,5.2c0.1,0.7-0.1,1.2-0.8,1.5c-1.7,0.8-2.8,2.2-3.9,3.6c-0.4,0.4-0.7,0.5-1.1,0.2
	c-0.2-0.2-0.3-0.6-0.2-0.9c0.3-1.7,0.6-3.5,1.2-5.2c0.5-1.8,1.4-3.3,3.3-4C218.7,387.9,219.1,387.9,219.6,387.8z"/>
<path class="st26" d="M289.9,378.2c0.5,0,0.6,0.2,0.8,0.7c0.1,0.3,0.6,0.9,0.8,0.8c0.7-0.2,0.9,0.3,1.3,0.6c0.4,0.3,1.1,0.4,1.6,0.5
	c-0.1,2.3,0.5,4.5,1,6.7c0.1,0.4,0.3,0.8,0.4,1.3c0.7,1.9,1.1,4,1.1,6c0.1,2.3-0.9,4.5-0.7,6.8c0.1,1.4-0.3,2.8-0.5,4.2
	c-0.4,2.7-0.9,5.5-1.4,8.2c-0.9,4.6-1.8,9.1-2.7,13.6c0,0.2-0.2,0.4-0.3,0.6c-0.8-0.3-1.6-0.5-2.2,0.2c-0.1,0.1-0.1,0.1-0.2,0.2
	c-0.2,0.2-0.5,0.4-0.5,0.6c0.1,0.5,0.1,1.1,0.9,1c0.1,0,0.1,0,0.2,0c0.4,0.3,0.7,0.5,1.2,0.9c0,0.1-0.1,0.4-0.2,0.7
	c-0.2,0.6-0.5,1.3-0.6,1.9c-0.5,1.7-0.9,3.5-1.4,5.2c-0.4,1.2-1,2.4-1.5,3.5c-0.8,1.9-1.5,3.8-3.5,4.9c-0.1,0.1-0.2,0.2-0.4,0.4
	c-0.2,0.2-0.5,0.5-0.7,0.7c-0.1,0.2-0.1,0.5-0.2,0.7c0,0.1,0,0.2,0,0.4c-0.1,0.1-0.1,0.2-0.2,0.4c-0.1,0.3-0.2,0.6-0.3,0.9
	c-0.3-0.2-0.7-0.5-0.9-0.5c-0.3,0.1-0.6,0.4-0.7,0.7c-0.2,0.5-0.5,0.9-1.1,1c-0.3,0.1-0.6,0.2-0.8,0.4c-0.7,0.6-1.5,0.7-2.4,0.7
	c-0.3,0-0.8,0.2-1,0.4c-0.7,0.6-1.5,0.9-2.4,0.8c0.1-0.9,0.2-1.8,0.4-2.7c0.4-0.2,0.8-0.4,1.1-0.7c0.6-0.8,1.1-1.6,1.6-2.4
	c0.1-0.1,0.2-0.2,0.3-0.3c1-0.2,1.2-1,1.5-1.8c0.1-0.3,0.2-0.6,0.4-0.9c1.1-1.2,2.3-2.4,2.5-4.1c0-0.2,0.4-0.4,0.5-0.7
	c0.4-0.6,1.2-1.2,1.3-1.8c0.2-1.5,1.3-2.3,2.1-3.3c0.6-0.7,0.9-1.3,1.1-2.1c0.2-0.6,0.6-1.2,0.9-1.8c0.3-0.4,0.8-0.8,0.9-1.3
	c0.6-1.8,0.9-3.7,1.6-5.4c0.6-1.3,1-2.6,1.3-4c0.1-0.7,0.3-1.3,0.4-2c0.7-4.5,2.1-8.9,1.7-13.5c-0.1-1.6,0.3-3.2,0.5-4.8
	c0.1-0.6,0-1-0.7-1.2c-0.4-0.1-0.6-0.7-0.9-1c0.3,0.1,0.5,0.1,0.8,0.2c0.6,0.3,1.1-0.1,1.3-0.5c0.2-0.5,0.6-1.2-0.3-1.7
	c-0.9-0.4-1.7,0-2.1,1.1c-0.5-0.8,0.1-1.2,0.5-1.7c0.3-0.3,0.6-0.7,0.5-1.1c0-0.7-0.4-1.3-0.5-2c-0.1-1.4,0.1-2.7,0-4.1
	c0-1.2,0.1-2.6-0.4-3.7c-0.7-1.4-1.1-2.8-1.4-4.2c0-0.1,0-0.1,0.1-0.2c0.5-0.9,0.7-1.8-0.5-2.4C289.2,378.3,289.5,378.3,289.9,378.2
	z"/>
<path class="st27" d="M289.1,428.5c0.6-0.7,1.4-0.5,2.2-0.2c0.1-0.2,0.2-0.4,0.3-0.6c0.9-4.5,1.8-9.1,2.7-13.6
	c0.5-2.7,1-5.5,1.4-8.2c0.2-1.4,0.6-2.8,0.5-4.2c-0.2-2.4,0.8-4.6,0.7-6.8c-0.1-2-0.4-4.1-1.1-6c-0.2-0.4-0.3-0.8-0.4-1.3
	c-0.5-2.2-1.2-4.4-1-6.7c-0.2-0.9-0.4-1.8,0.4-2.5c0.2-0.1,0.5-0.1,0.7-0.2c1.2,1.4,0.8,3.2,1.2,4.8c0.3,1.1,0.5,2.3,0.7,3.5
	c0.3,1.5,0.6,2.9,1,4.4c0.5,1.9,1,3.9,1.6,5.8c0.9,2.9,0.6,5.8,0,8.7c-0.4,2.3-0.6,4.6-1,6.9s-0.8,4.7-1.3,7
	c-0.8,4-1.7,8.1-2.6,12.1c-0.4,1.6-0.9,3.1-1.7,4.5c-1,2-1.8,4-2.7,6.1c-0.1,0.2-0.1,0.5-0.1,0.7c-0.4,0.4-0.9,0.8-1,1.3
	c-0.1,0.7-0.3,1.2-0.8,1.1c-0.6,0.7-1.1,1.2-1.5,1.8c-0.2,0.3-0.4,0.6-0.6,1c-0.5,0.9-0.9,1-1.7,0.4c-0.2-0.1-0.4-0.1-0.6-0.2
	c-0.3-0.1-0.6-0.1-0.9-0.2c0-0.1,0-0.2,0-0.4c1.9-1.1,2.6-3.1,3.5-4.9c0.5-1.2,1.1-2.3,1.5-3.5c0.6-1.7,1-3.4,1.4-5.2
	c0.2-0.6,0.4-1.3,0.6-1.9c0.1-0.3,0.2-0.6,0.2-0.7c-0.5-0.3-0.9-0.6-1.2-0.9c0.2-0.1,0.3-0.1,0.5-0.2c0.3-0.2,0.7-0.6,0.7-0.8
	c-0.1-0.3-0.5-0.6-0.8-0.8C289.7,428.4,289.4,428.5,289.1,428.5z"/>
<path class="st17" d="M283.4,447.8c0.3,0.1,0.6,0.1,0.9,0.2c0.2,0.3,0.5,0.7,0.4,1c-0.1,0.4-0.3,0.9-0.7,1.1
	c-0.5,0.3-1.1,0.4-1.5-0.2c-0.1-0.1-0.3-0.2-0.4-0.3c0-0.1,0-0.2,0-0.4c0.1-0.2,0.1-0.5,0.2-0.7c0.2-0.2,0.5-0.5,0.7-0.7
	C283.2,447.8,283.3,447.8,283.4,447.8z"/>
<path class="st17" d="M272.7,464c0-0.1,0-0.2,0-0.4c0.2-0.5,0.2-1.2,1-1.3c0.8-0.1,1.2,0.3,1.3,0.9c0.1,0.5-0.2,1-0.3,1.8
	C273.9,464.7,273.3,464.4,272.7,464z"/>
<path class="st22" d="M234.9,385.4c1.2-1.2,2.4-2.3,3.6-3.5c0.1-0.1,0.1-0.2,0.2-0.2c1.2,0,1.3-1.1,1.7-1.8c0.5-0.8,0.9-1.7,1.4-2.5
	c0.3-0.5,0.8-1,1.6-0.8c0.6,0.1,0.8-0.3,0.7-0.9c-0.4,0.1-0.8,0.2-1.4,0.4c0.1-0.6,0.1-1,0.2-1.5c0.5-0.2,1-0.4,1.5-0.7
	c0.7-0.3,1.3-0.7,2.2-0.5c0.3,0.1,0.7-0.2,1.1-0.3c0.5-0.1,1-0.2,1.5-0.3c0.4,0.4,0.7,0.5,1.1-0.1c0.6-0.9,2.2-1,3.1-0.4
	c0.2,0.2,0.5,0.3,0.8,0.3c1,0,1.9,0.1,2.9,0c0.7,0,1.4-0.2,2.1-0.2c0.5,0,0.9,0.3,1.4,0.2c0.7-0.1,1.3,1,2,0.1
	c0.1-0.1,0.4-0.1,0.5,0c0.8,0.6,1.6,0.5,2.4,0c1-0.6,2-0.1,2.4,1c0.5,1.4,0.9,3,1.8,4.2c0.6,0.8,0.8,1.8,1.4,2.6
	c0.2,0.2,0.2,0.6,0.3,0.9c-0.6-0.1-1.1-0.2-1.5,0.4c-0.1,0.2-0.4,0.2-0.6,0.3c-0.6,0.1-1.2,0.1-1.9,0.2c-0.2,0-0.5,0-0.5-0.1
	c-0.2-1.2-1.2-1-2-1.2c-1.6-0.3-3.2-0.8-4.9-0.5c-0.9,0.2-1.4,0-1.7-0.9c-0.2-0.6-0.5-0.5-0.9-0.1c-0.1,0.2-0.1,0.5-0.3,0.6
	c-0.2,0.1-0.6,0.2-0.7,0.1c-0.6-0.7-1.6-0.6-2.1,0.2c-0.1,0.2-0.2,0.5-0.3,0.5c-0.6-0.1-1-0.2-1.4-0.1c-0.7,0.1-1.4,0.6-2.1,0
	c-0.5-0.4-1-0.2-1.5,0c-0.4,0.2-0.9,0.1-1.3,0.1c-0.7,0.1-1.3,0.2-1.9-0.3c0,0-0.2,0.1-0.3,0.1c-0.5,0.3-1,0.6-1.5,0.9
	c-0.8,0.5-2,0.3-2.7-0.6c-1,0.5-2.1,0.9-3.1,1.6s-1.8,1.7-2.7,2.5C235.5,385.5,235.3,386,234.9,385.4z"/>
<path class="st17" d="M295.6,375.4c-1-0.3-0.6-1.1-0.4-1.6c0.2-0.6,0.7-1.1,1.5-0.7c0.4,0.4,1.1,0.7,0.7,1.6
	C297,375.5,296.6,375.7,295.6,375.4z"/>
<path class="st10" d="M301.1,414.3c0.2,0.1,0.5,0.1,0.7,0.2c0.3,0.3,0.8,0.7,0.8,1c0,0.6-0.4,1.2-1.1,1.2c-0.3,0-0.5,0-0.8,0l0,0
	c-0.2-0.2-0.4-0.5-0.5-0.7C299.9,415.1,300.2,414.7,301.1,414.3z"/>
<path class="st10" d="M299.8,388.6c0.5-1.1,1.2-1.3,2-0.7c0.5,0.4,0.4,0.9,0.1,1.2c-0.3,0.3-0.8,0.8-1.4,0.3
	c-0.2-0.2-0.5-0.3-0.7-0.5C299.8,388.8,299.8,388.7,299.8,388.6z"/>
<path class="st24" d="M300.2,416.1c0.2,0.2,0.4,0.5,0.5,0.7C300.6,416.5,300.4,416.3,300.2,416.1z"/>
<path class="st28" d="M289.3,380.9c0.4,1.4,0.8,2.8,1.4,4.2c0.5,1,0.4,2.4,0.4,3.7c0,1.4-0.1,2.8,0,4.1c0,0.7,0.4,1.3,0.5,2
	c0,0.3-0.3,0.8-0.5,1.1c-0.4,0.5-1,0.9-0.5,1.7c0.1,0.3,0.2,0.6,0.4,0.9c0.3,0.3,0.5,0.9,0.9,1c0.7,0.2,0.8,0.6,0.7,1.2
	c-0.2,1.6-0.6,3.2-0.5,4.8c0.4,4.7-1,9.1-1.7,13.5c-0.1,0.7-0.2,1.3-0.4,2c-0.3,1.4-0.7,2.7-1.3,4c-0.8,1.7-1.1,3.6-1.6,5.4
	c-0.2,0.5-0.6,0.8-0.9,1.3c-0.3,0.6-0.7,1.1-0.9,1.8c-0.2,0.8-0.6,1.4-1.1,2.1c-0.8,1-1.9,1.8-2.1,3.3c-0.1,0.7-0.8,1.2-1.3,1.8
	c-0.2,0.2-0.5,0.4-0.5,0.7c-0.2,1.8-1.4,2.9-2.5,4.1c-0.2,0.2-0.3,0.6-0.4,0.9c-0.3,0.8-0.5,1.6-1.5,1.8c-0.1,0-0.3,0.2-0.3,0.3
	c-0.5,0.8-1,1.6-1.6,2.4c-0.2,0.3-0.7,0.5-1.1,0.7c-0.4-0.6-0.8-0.8-1.6-0.7c-0.6,0.1-1.4-0.6-2.1-1c-0.4-0.2-0.7-0.5-1.1-0.8
	c0.3-0.3,0.5-0.6,0.8-0.9c0.2-0.2,0.4-0.4,0.6-0.6c0.5-0.5,1-1.1,1.6-1.4c0.5-0.3,0.8-0.6,0.9-1.1c0.3-1,0.5-2.1,1.9-2.2
	c0.1,0,0.1-0.1,0.1-0.1c1.9-1.3,2.9-3.3,4-5.2c0,0,0-0.1,0,0.1c-0.5-0.5-0.9-0.9-1.2-1.3c0.3,0,0.6,0.2,0.9,0.1
	c0.4-0.1,1-0.2,1.2-0.5c0.3-0.4,0.2-1.1-0.3-1.4c-0.4-0.3-0.9-0.5-1.4-0.1c-0.2,0.2-0.5,0.2-0.8,0.2c1.1-1.4,2.3-0.9,3.5,0.1
	c0.5-2.1,1-4.1,1.5-6c0.2-0.7,0.3-1.6,0.7-2.1c1-1.1,1.6-2.5,1.9-3.9c0.9-4.8,1.8-9.6,2.7-14.3c0.4-2,0.8-4.1-0.3-6
	c-0.1-0.1,0-0.3,0-0.4c0.3-2.1,0.6-4.1,0.8-6.2c0.1-0.6,0.3-1.4,0.1-1.9c-0.4-0.7-0.3-1.2-0.2-1.9c0.1-0.4,0-0.9-0.1-1.3
	c-0.2-1.1-0.7-2.2-0.3-3.4c0.1-0.3,0-0.7-0.1-1c-0.1-0.6-0.4-1.2-0.5-1.8c-0.1-0.9-0.1-1.7-0.2-2.6c0-0.2-0.2-0.4-0.3-0.6
	c-0.3-0.5-0.6-1-0.9-1.5c0.5,0.4,1.1,0.8,1.7,1.3c0.1-0.1,0.4-0.2,0.5-0.5c0.5-0.8,1-0.8,1.7-0.3C288.7,380.7,289,380.8,289.3,380.9
	z"/>
<path class="st29" d="M276.7,436.6c0.4,0.4,0.7,0.8,1.2,1.3c0-0.2,0-0.1,0-0.1c-1.1,1.9-2.1,3.9-4,5.2l-0.1,0.1
	c-1.4,0.1-1.6,1.2-1.9,2.2c-0.2,0.5-0.4,0.8-0.9,1.1c-0.6,0.3-1.1,1-1.6,1.4c-0.2-0.1-0.3-0.2-0.3-0.2c0.4-1.1,0.8-2,1.2-3
	c0.3-1,0.5-2,0.9-3c0.4-1.1,0.6-2.1,0.5-3.3c0-0.3,0.1-0.6,0.1-0.9c0.2-0.3,0.5-0.5,0.5-0.8c0.1-1.3,0.8-2,1.9-2.6
	c0.3-0.2,0.5-0.6,0.6-1c0.3-1,0.3-2.1,1.1-3c0.5-0.6,0.9-1.5,1.1-2.3c0.8-3.6,1.6-7.2,2.4-10.9c0.1-0.6-0.1-1.3-0.1-2
	c0-0.5-0.1-1.2,0.2-1.6c1.1-1.3,1.1-2.9,1.4-4.4c0.4-2.4,0.7-4.8,1.1-7.2c0.3-1.6,0.4-3.1-0.1-4.7c-0.2-0.6-0.1-1.2,0-1.8
	c0.2-1.1,0.1-2-0.7-2.8c-0.5-0.5-0.6-1.1-0.4-1.8c0.1-0.4,0.2-0.9,0-1.3c-0.5-1.4-1.1-2.7-1.6-4.1c-0.2-0.6-0.3-1.3-0.4-2
	c-0.2-0.8-0.6-1.6,0-2.4c0.1-0.1,0-0.3,0-0.3c-0.9-0.6-0.6-1.6-0.7-2.4c-0.1-1.1,0-2.2,0-3.3c0.4,0.2,0.9,0.3,1.3,0.5
	s0.8,0.4,1.2,0.6c-0.4,0.4-0.7,0.7-1.1,1c0,0.1,0,0.2,0,0.4l0,0c-0.5,0.4-0.6,0.8,0,1.2c0.6,0.3,1.1,0.4,1.6-0.2
	c0.1-0.1,0.2-0.1,0.4-0.2c1-0.6,1-0.6,1.7,0.3c0.4,0.5,0.9,1,1.3,1.5c0.3,0.5,0.6,1,0.9,1.5c0.1,0.2,0.3,0.4,0.3,0.6
	c0.1,0.9,0.1,1.7,0.2,2.6c0.1,0.6,0.3,1.2,0.5,1.8c0.1,0.3,0.2,0.7,0.1,1c-0.4,1.2,0.1,2.2,0.3,3.4c0.1,0.4,0.2,0.9,0.1,1.3
	c-0.1,0.7-0.1,1.3,0.2,1.9c0.3,0.5,0,1.2-0.1,1.9c-0.3,2.1-0.5,4.1-0.8,6.2c0,0.1,0,0.3,0,0.4c1.1,2,0.7,4,0.3,6
	c-0.9,4.8-1.7,9.6-2.7,14.3c-0.3,1.4-0.9,2.8-1.9,3.9c-0.5,0.5-0.5,1.4-0.7,2.1c-0.5,1.9-1,3.9-1.5,6c-1.2-1-2.4-1.5-3.5-0.1
	C276,435.6,276.1,436.1,276.7,436.6z M280.9,415.5c0.8,0,1.2-0.4,1.3-1.2c0-0.6-0.7-1.2-1.4-1.3c-0.6,0-1.1,0.5-1.2,1.3
	C279.6,414.8,280.3,415.5,280.9,415.5z"/>
<path class="st15" d="M275.5,364.1c0.7,0,1.3,0.5,1.1,1.1c-0.1,0.5-0.6,1.2-1,1.2c-0.9,0.2-1.3-0.3-1.3-1.2
	C274.3,364.5,274.6,364.2,275.5,364.1z"/>
<path class="st17" d="M281.1,378.4c-0.5,0.6-1,0.4-1.6,0.2c0-0.4,0-0.8,0-1.2l0,0c0.1-0.1,0.2-0.1,0.4-0.2c0.2,0,0.5,0,0.7,0
	c0.1,0.1,0.2,0.1,0.4,0.2c0.1,0.2,0.1,0.4,0.2,0.5C281.1,378.1,281.1,378.2,281.1,378.4z"/>
<path class="st26" d="M281.1,378.4c0-0.2,0-0.4,0-0.5c0.1,0.1,0.2,0.2,0.4,0.4C281.3,378.3,281.2,378.4,281.1,378.4z"/>
<path class="st26" d="M280.9,377.3c-0.1-0.1-0.2-0.1-0.4-0.2C280.7,377.2,280.8,377.3,280.9,377.3z"/>
<path class="st26" d="M279.9,377.2c-0.1,0.1-0.2,0.1-0.4,0.2c0-0.1,0-0.2,0-0.4C279.6,377,279.7,377.1,279.9,377.2z"/>
<path class="st17" d="M265.4,463.8c0.3-0.3,0.8-0.8,0.9-0.8c0.4,0.2,0.8,0.6,1,1c0.1,0.1-0.4,0.8-0.6,0.8
	C266.3,464.8,265.5,464.9,265.4,463.8z"/>
<path class="st17" d="M286.3,366.9c0.4-0.3,0.7-0.8,1.1-0.8c0.3,0,0.7,0.6,1,0.9c-0.4,0.3-0.7,0.9-1.1,1s-1-0.2-0.8-0.9
	C286.4,367,286.4,366.9,286.3,366.9z"/>
<path class="st30" d="M234.9,385.4c0.3,0.6,0.6,0.2,0.9-0.1c0.9-0.8,1.7-1.8,2.7-2.5c0.9-0.7,2-1.1,3.1-1.6c0.6,0.8,1.9,1.1,2.7,0.6
	c0.5-0.3,1-0.6,1.5-0.9c0.1-0.1,0.3-0.2,0.3-0.1c0.6,0.5,1.2,0.4,1.9,0.3c0.4-0.1,0.9,0,1.3-0.1c0.6-0.2,1-0.4,1.5,0
	c0.7,0.6,1.4,0.1,2.1,0c0.4,0,0.8,0.1,1.4,0.1c0,0,0.1-0.3,0.3-0.5c0.4-0.8,1.5-0.9,2.1-0.2c0.1,0.1,0.5,0,0.7-0.1s0.2-0.4,0.3-0.6
	c0.3-0.4,0.7-0.5,0.9,0.1c0.3,0.9,0.8,1.1,1.7,0.9c1.7-0.3,3.3,0.1,4.9,0.5c0.9,0.2,1.8,0,2,1.2c0,0,0.3,0,0.5,0.1
	c0,0.8,0,1.7,0.1,2.5c0,0.2,0.3,0.5,0.5,0.7s0.3,0.3,0.6,0.6c-0.3,0.1-0.5,0.1-0.6,0.1c-0.8-0.1-0.9,0.6-1,1.1
	c-0.1,0.6,0.1,0.9,0.8,0.9c0.2,0,0.5,0.5,0.4,0.7c-0.1,1-0.3,1.9-0.4,2.9c0,0.3,0.1,0.6,0.2,1s0.4,0.8,0.4,1.1
	c0,0.7-0.2,1.4-0.4,2.1c-0.1,0.3-0.3,0.5-0.4,0.7c-0.2,0.3-0.5,0.5-0.6,0.8c-0.5,2.3-1,4.7-1.4,7c-1.2,6.4-2.4,12.7-3.5,19.1
	c-0.1,0.7,0,1.3,0.1,2c0.2,1-0.2,2.2-0.4,3.3c0,0.1-0.2,0.2-0.3,0.2c-0.8,0.1-0.8,0.7-0.9,1.3c-0.1,0.8-0.2,1.6-0.4,2.3
	c-0.1,0.3-0.5,0.6-0.8,0.6c-0.4,0.1-1-0.1-1.1,0.6c-0.1,0.6-0.2,1.2,0.6,1.5c0.1,0,0.2,0.3,0.3,0.6c-0.5,0-0.8,0-1.2,0
	c-0.2,0.5-0.3,1-0.5,1.4c-0.2,0.5-0.1,1.3-1.1,1c0,0-0.1,0.3-0.2,0.4c-0.2,0.2-0.3,0.4-0.5,0.6c-0.2,0.1-0.5,0.2-0.7,0.1
	c-1.4-0.3-2.8-0.7-4.2-1.1c-0.6-0.2-1.2-0.5-1.7-0.8c-0.5-0.4-1-0.3-1.5,0.1c-0.8,0.6-1,0.5-1.2-0.5c0-0.2-0.1-0.4-0.2-0.6
	c-1,0.6-1.8,0.2-2.3-0.9c-0.1-0.2-0.4-0.4-0.6-0.5c-0.4-0.2-0.8-0.4-1.2-0.7c-0.1,0.2-0.2,0.4-0.3,0.7c-0.1,0-0.2,0-0.2,0
	c0-0.3-0.1-0.6-0.1-1c-0.3,0.4-0.7,0.7-1.1,0.1c-0.2-0.3-0.7-0.5-1-0.7c-1-1-1.2-1-1.9,0.5c-0.6-0.6-1.1-1.1-1.6-1.7
	c-0.3-0.4-0.6-0.8-0.9-1.2c-0.7-1-1.5-1-2.3-0.1c-0.7-0.6-1.3-1.3-2-1.9c-0.4-0.5-0.8-1-1.2-1.5c-0.3-0.5-0.6-0.9-0.8-1.5
	s-0.6-1.1-0.2-1.8c0.6-1.3-0.3-2.4-1.7-2.4c-0.3,0-0.7-0.3-0.8-0.5c-0.5-1.6-1.1-3.2-1.5-4.8c-0.4-1.7-0.5-3.5-1.2-5.1
	c-0.8-1.8-0.3-3.5-0.5-5.3c-0.1-0.6-0.3-1.2-0.3-1.8c0-0.8,0.2-1.5,0.4-2.3c0.4-1,0.9-2,1.3-3c0-0.1,0.1-0.2,0.1-0.3
	c0.3-2.2,2-3.8,3.1-5.5c1-1.5,2-3.1,3.1-4.5c1-1.2,2.2-2.3,3.3-3.5C234.4,385.5,234.7,385.5,234.9,385.4z M251.6,389.3
	c0.2-0.5,0.4-0.8,0.4-1.1c0-0.4-0.1-0.8-0.1-1.2c-0.3,0.1-0.7,0.1-1,0.2c-0.2,0.1-0.5,0.3-0.7,0.4c-0.4,0.4-0.9,0.9-1.3,1.3
	c-0.2,0.3-0.3,0.6-0.5,1c-0.3,0.6-0.8,1-1.5,0.6c-0.6-0.3-1.5,0-1.7-0.9c-0.2-0.6-0.5-0.7-0.9-0.4c-1.3,1-2.7,2-3.8,3.2
	c-2.2,2.2-3.6,5-4.8,7.8c-1,2.5-1.7,5-1.8,7.7c-0.1,1.7-0.2,3.3,0.1,5c0.3,2.1,0.8,4.1,1.4,6.1c0.4,1.4,1.2,2.7,1.9,4.1
	c0.1,0.2,0.3,0.2,0.4,0.4c0.3,0.3,0.5,0.6,0.8,0.9c0.4,0.6,0.8,1.3,1.4,2.1c0.1-0.6,0.2-0.9,0.3-1.4c0.4,0.1,0.7,0.2,0.9,0.4
	c0.7,0.8,1.4,1.7,2,2.5c0.2,0.2,0.5,0.6,0.8,0.5c0.3,0,0.7-0.3,0.8-0.6c0.1-0.2-0.1-0.5-0.1-0.8c0-0.2,0.1-0.5,0.1-0.7
	c0.2,0.1,0.5,0.2,0.6,0.3c0.3,0.5,0.7,1,0,1.5c-0.1,0.1,0,0.4,0,0.6c0.1,0.4,0.3,0.9,0.5,1.3c0.4,0.1,0.7,0.2,1,0.2s0.8-0.3,1-0.2
	c0.8,0.5,1.4-0.2,2-0.2c0.8,0.1,1.3-0.2,1.4-1.1c0.3,0.2,0.4,0.3,0.6,0.4c1.8,1.3,1.8,1.3,2.3-0.8c0-0.1,0.1-0.3,0.1-0.4
	c0.1-0.3,0.2-0.7,0.3-1c0.1,0,0.2,0,0.3,0.1c0,0.5-0.1,1.1-0.1,1.6c0.1,0,0.2,0.1,0.2,0.1c0.4-0.3,0.7-0.7,1.1-1
	c0.6-0.5,1.2-0.2,1.3,0.5c0,0.3,0,0.5,0,0.8c0,0.6-0.1,1.2-0.1,1.8c0.2,0,0.3-0.1,0.3-0.2c0-1.7,1.4-2.7,1.8-4.2
	c0-0.1,0.1-0.2,0.2-0.2c1-0.2,0.7-0.8,0.6-1.4c-0.1-0.3,0-0.7,0.1-1.1c0.8-4.2,1.6-8.4,2.4-12.6c0.9-4.8,1.7-9.6,2.6-14.5
	c0.1-0.3,0.3-0.6,0.5-0.8c0.5-0.5,0.5-0.8,0.1-1.4c-0.2-0.3-0.2-0.7-0.3-1.1c0-0.2,0.1-0.5,0-0.6c-0.6-0.7-0.5-1.5-0.3-2.4
	c0.1-0.3,0-0.5,0-0.8c-0.1,0-0.2,0-0.2,0c-0.1,0.4-0.1,0.9-0.3,1.3c-0.3,0.5-0.7,1-1.1,1.4c-0.4-0.4-0.7-0.8-1.1-1.3
	c-0.2-0.2-0.3-0.5-0.5-0.9c-0.2,0.8-0.4,1.3-0.6,1.9c-0.1,0-0.2,0-0.3-0.1c0-0.2-0.1-0.4-0.1-0.6c0.1-0.6,0.2-1.1,0.3-1.6
	c0.2-1.1,0-1.2-1.1-1c-0.5,0.1-1,0.1-1.8,0.3c0.3-0.9,0.6-1.6,0.9-2.5c-0.4-0.6-1.1-0.8-2-0.3c-0.4,0.2-0.8,0.3-1.3,0.4
	c-0.2,0-0.5,0-0.7-0.1c-0.4-0.2-0.7-0.5-1.1-0.7c-0.6,0.6-1,1.1-1.4,1.5C253.3,388.6,253,389,251.6,389.3z M249.9,430.7
	c-0.6,0-1.4,0.9-1.4,1.5c0,0.5,0.8,1,1.4,1c0.7,0,1.3-0.6,1.3-1.3C251.1,431.3,250.5,430.7,249.9,430.7z M253.4,432.6
	c0.3,0.1,0.6,0.2,0.9,0.2c0.3,0,0.7,0,0.8-0.2c0.1-0.3,0.1-0.7,0-1c0-0.2-0.2-0.4-0.3-0.5c-0.1-0.2-0.4-0.4-0.5-0.4
	c-0.2,0.1-0.4,0.3-0.4,0.5C253.6,431.6,253.5,432.1,253.4,432.6z M261.9,388.9c0.5-0.3,0.9-0.4,1.2-0.7c0.2-0.3,0.2-0.7,0.3-1.1
	c-0.5-0.1-0.9-0.2-1.4-0.3C261.9,387.6,261.5,388.2,261.9,388.9z M255.6,433.2c0.1,0,0.2,0.1,0.4,0.1c0.1-0.3,0.1-0.6,0.2-0.9
	c-0.1,0-0.2,0-0.3-0.1C255.8,432.6,255.7,432.9,255.6,433.2z M264,387.9c0.1,0,0.2,0.1,0.4,0.1c0-0.3,0.1-0.6,0.1-0.9
	c-0.1,0-0.2,0-0.3-0.1C264.1,387.3,264.1,387.6,264,387.9z M259.9,386.7c0,0.1,0.1,0.2,0.1,0.3c0.3-0.1,0.6-0.2,0.9-0.3
	c0-0.1-0.1-0.2-0.1-0.3C260.5,386.5,260.2,386.6,259.9,386.7z M252.3,432.2l-0.1-0.1c0,0,0,0.1-0.1,0.1l0.1,0.1
	C252.3,432.4,252.3,432.3,252.3,432.2z"/>
<path class="st31" d="M278.8,383.2c0.1,0.7,0.2,1.3,0.4,2c0.5,1.4,1.1,2.7,1.6,4.1c0.1,0.4,0.1,0.9,0,1.3c-0.2,0.7-0.1,1.3,0.4,1.8
	c0.8,0.8,0.9,1.7,0.7,2.8c-0.1,0.6-0.2,1.3,0,1.8c0.5,1.6,0.3,3.1,0.1,4.7c-0.4,2.4-0.7,4.8-1.1,7.2c-0.3,1.5-0.3,3.1-1.4,4.4
	c-0.3,0.3-0.2,1-0.2,1.6c0,0.7,0.2,1.4,0.1,2c-0.7,3.6-1.5,7.3-2.4,10.9c-0.2,0.8-0.5,1.7-1.1,2.3c-0.8,0.9-0.8,2-1.1,3
	c-0.1,0.4-0.3,0.9-0.6,1c-1.1,0.6-1.8,1.3-1.9,2.6c0,0.3-0.3,0.5-0.5,0.8c-0.2,0.1-0.3,0.1-0.5,0.2c-0.9,0.7-1.7,1.4-2.6,2
	c-0.3,0.2-0.9,0.2-1.2,0.5c-0.9,0.9-2.4,1-3,2.2c-0.1,0.1-0.3,0.1-0.5,0.2c-0.4,0.2-0.8,0.4-1.1,0.8c-0.3,0.4-0.5,0.5-1,0.4
	s-1.1-0.1-1.6-0.1c0.1-0.8-0.2-1.6,0.5-2.3c0.1-0.1,0.1-0.5,0.1-0.8c0.1-0.6,0.3-1,1-1.1c0.2-0.1,0.5-0.4,0.6-0.7
	c0.6-1.1,1.2-2.3,1.7-3.4c0-0.1,0.1-0.2,0.2-0.2c1.1-0.6,1.1-1.8,1.3-2.9c0.2-1,0.4-1.9,1.4-2.4c0.3-0.2,0.4-0.7,0.5-1
	c0.2-0.6,0.1-1.5,0.5-1.8c0.8-0.8,0.8-1.9,1.1-2.8c0.2-0.9,0.3-1.7,0.5-2.6c0.6-3,1.1-5.9,1.7-8.9c0.8-4.1,1.5-8.2,2.2-12.4
	c0.1-0.8,0.5-1.7,0.3-2.4c-0.3-0.8-0.3-1.5-0.1-2.3c0.3-1.3-0.3-2.4-1.5-3s-1.6-2.2-0.4-2.8c1.1-0.6,1.4-1.2,1.1-2.3
	c-0.1-0.5,0-1-0.1-1.5s-0.3-0.9-0.3-1.3c0-0.6,0-1.2-0.7-1.6c-0.2-0.1-0.3-0.6-0.4-0.9c0.2,0.2,0.5,0.4,0.8,0.5s0.7,0.3,1,0.2
	c0.2-0.1,0.4-0.5,0.4-0.8c0-0.6,0.3-0.6,0.7-0.4c0.7,0.4,1.4,1,2.2,1.4c0.2,0.1,0.5,0,0.8,0C277.8,383.3,278.3,383.3,278.8,383.2z
	 M265.8,438c-1.2-0.3-1.3-0.3-1.9,1c0.3,0.2,0.7,0.4,1,0.6c0.2,0.1,0.5,0.3,0.7,0.3c0.1,0,0.2-0.4,0.3-0.6c0-0.3,0-0.6,0-0.9
	C265.9,438.2,265.8,438.1,265.8,438z M276.6,406.5c-0.1-0.9-0.7-1.1-1-1c-0.4,0.1-0.7,0.7-1,1c0.3,0.3,0.7,0.7,1,0.7
	C276,407.2,276.3,406.7,276.6,406.5z"/>
<path class="st32" d="M271.5,382.3c0.1,0.3,0.2,0.8,0.4,0.9c0.7,0.4,0.7,1,0.7,1.6c0,0.5,0.2,0.9,0.3,1.3c0.1,0.5-0.1,1,0.1,1.5
	c0.3,1.1,0,1.8-1.1,2.3c-1.1,0.6-0.8,2.3,0.4,2.8c1.1,0.5,1.7,1.7,1.5,3c-0.2,0.8-0.2,1.4,0.1,2.3c0.3,0.7-0.1,1.6-0.3,2.4
	c-0.7,4.1-1.5,8.2-2.2,12.4c-0.5,3-1.1,5.9-1.7,8.9c-0.2,0.9-0.3,1.8-0.5,2.6c-0.3,1-0.2,2-1.1,2.8c-0.4,0.4-0.3,1.2-0.5,1.8
	c-0.1,0.4-0.2,0.9-0.5,1c-1,0.5-1.3,1.4-1.4,2.4c-0.2,1.1-0.2,2.2-1.3,2.9c-0.1,0-0.1,0.1-0.2,0.2c-0.6,1.1-1.1,2.3-1.7,3.4
	c-0.1,0.3-0.4,0.6-0.6,0.7c-0.6,0.1-0.9,0.6-1,1.1c-0.6,0.1-1,0.2-1.5-0.3c-0.7-0.7-1.8-0.9-2.8-1.3c0.1-0.2,0.1-0.4,0.2-0.4
	c1,0.3,0.9-0.5,1.1-1s0.3-0.9,0.5-1.4c0.4,0,0.7,0,1.2,0c-0.1-0.3-0.2-0.5-0.3-0.6c-0.7-0.3-0.7-0.8-0.6-1.5s0.6-0.5,1.1-0.6
	c0.3-0.1,0.7-0.4,0.8-0.6c0.2-0.8,0.3-1.6,0.4-2.3c0.1-0.6,0.1-1.2,0.9-1.3c0.1,0,0.3-0.1,0.3-0.2c0.2-1.1,0.5-2.2,0.4-3.3
	c-0.1-0.7-0.2-1.4-0.1-2c1.2-6.4,2.3-12.7,3.5-19.1c0.4-2.3,0.9-4.7,1.4-7c0.1-0.3,0.4-0.5,0.6-0.8c0.2-0.2,0.4-0.5,0.4-0.7
	c0.2-0.7,0.4-1.4,0.4-2.1c0-0.4-0.3-0.8-0.4-1.1c-0.1-0.3-0.2-0.7-0.2-1c0.1-1,0.3-1.9,0.4-2.9c0-0.2-0.3-0.7-0.4-0.7
	c-0.6-0.1-0.9-0.3-0.8-0.9c0.1-0.5,0.1-1.2,1-1.1c0.1,0,0.2,0,0.6-0.1c-0.3-0.3-0.5-0.4-0.6-0.6c-0.2-0.2-0.5-0.4-0.5-0.7
	c-0.1-0.8,0-1.7-0.1-2.5c0.6-0.1,1.2-0.1,1.9-0.2c0.2,0,0.5-0.1,0.6-0.3c0.4-0.7,0.9-0.5,1.5-0.4C271.5,381.7,271.5,382,271.5,382.3
	z M266.8,419.4c0-0.7-0.5-1.2-1.1-1.2c-0.7,0-1.4,0.6-1.4,1.2c0,0.8,0.5,1.3,1.4,1.3C266.5,420.7,266.8,420.3,266.8,419.4z"/>
<path class="st26" d="M262.2,447.1c0,0.7-0.5,1.1-1.2,1.1c-0.6,0-1.2-0.2-1.3-1c0-0.6,0.7-1.5,1.3-1.5
	C261.5,445.6,262.2,446.4,262.2,447.1z"/>
<path class="st17" d="M290.9,398.6c-0.1-0.3-0.2-0.6-0.4-0.9c0.4-1.1,1.2-1.5,2.1-1.1s0.5,1.1,0.3,1.7c-0.2,0.4-0.7,0.8-1.3,0.5
	C291.5,398.6,291.2,398.6,290.9,398.6z"/>
<path class="st17" d="M289.1,428.5c0.2,0,0.5-0.1,0.7,0c0.3,0.2,0.7,0.5,0.8,0.8c0.1,0.2-0.4,0.5-0.7,0.8c-0.1,0.1-0.3,0.1-0.5,0.2
	c-0.1,0-0.1,0-0.2,0c-0.1-0.5-0.2-1.1-0.4-1.6C289,428.7,289.1,428.6,289.1,428.5z"/>
<path class="st27" d="M289,428.7c0.1,0.5,0.2,1.1,0.4,1.6c-0.8,0.1-0.8-0.6-0.9-1C288.4,429.1,288.8,428.9,289,428.7z"/>
<path class="st15" d="M282.4,448.5c-0.1,0.2-0.1,0.5-0.2,0.7C282.2,449,282.3,448.8,282.4,448.5z"/>
<path class="st15" d="M283.4,447.8c-0.1,0-0.2,0-0.4,0c0.1-0.1,0.2-0.2,0.4-0.4C283.4,447.6,283.4,447.7,283.4,447.8z"/>
<path class="st6" d="M276.7,436.6c-0.5-0.4-0.7-1-0.4-1.6c0.3-0.1,0.6-0.1,0.8-0.2c0.5-0.5,1-0.2,1.4,0.1c0.5,0.3,0.6,1,0.3,1.4
	c-0.2,0.3-0.8,0.4-1.2,0.5C277.2,436.7,276.9,436.6,276.7,436.6z"/>
<path class="st27" d="M280.9,415.5c-0.5,0-1.3-0.8-1.3-1.2c0.1-0.8,0.5-1.3,1.2-1.3s1.5,0.7,1.4,1.3
	C282.1,415.1,281.6,415.6,280.9,415.5z"/>
<path class="st26" d="M279.5,377.3c0,0.4,0,0.8,0,1.2C278.9,378.2,279,377.8,279.5,377.3z"/>
<path class="st33" d="M251.6,389.3c1.5-0.3,1.7-0.7,1.2-1.7c0.4-0.5,0.9-0.9,1.4-1.5c0.3,0.2,0.7,0.5,1.1,0.7
	c0.2,0.1,0.5,0.2,0.7,0.1c0.4-0.1,0.9-0.2,1.3-0.4c0.9-0.5,1.6-0.3,2,0.3c-0.3,0.9-0.5,1.6-0.9,2.5c0.8-0.1,1.3-0.2,1.8-0.3
	c1-0.2,1.2-0.1,1.1,1c-0.1,0.6-0.2,1.1-0.3,1.6c0,0.2,0,0.4,0.1,0.6c0.1,0,0.2,0,0.3,0.1c0.2-0.5,0.3-1.1,0.6-1.9
	c0.2,0.4,0.3,0.7,0.5,0.9c0.3,0.4,0.7,0.8,1.1,1.3c0.4-0.5,0.8-0.9,1.1-1.4c0.2-0.4,0.2-0.9,0.3-1.3c0.1,0,0.2,0,0.2,0
	c0,0.3,0.1,0.6,0,0.8c-0.2,0.8-0.3,1.6,0.3,2.4c0.1,0.1,0,0.4,0,0.6c0.1,0.4,0.1,0.8,0.3,1.1c0.5,0.5,0.4,0.9-0.1,1.4
	c-0.2,0.2-0.4,0.5-0.5,0.8c-0.9,4.8-1.7,9.6-2.6,14.5c-0.8,4.2-1.6,8.4-2.4,12.6c-0.1,0.3-0.1,0.7-0.1,1.1c0.1,0.6,0.4,1.2-0.6,1.4
	c-0.1,0-0.1,0.1-0.2,0.2c-0.5,1.5-1.9,2.5-1.8,4.2c0,0.1-0.1,0.1-0.3,0.2c0-0.6,0.1-1.2,0.1-1.8c0-0.3,0-0.5,0-0.8
	c-0.1-0.7-0.7-1-1.3-0.5c-0.4,0.3-0.8,0.7-1.1,1c-0.1,0-0.2-0.1-0.2-0.1c0-0.5,0.1-1.1,0.1-1.6c-0.1,0-0.2,0-0.3-0.1
	c-0.1,0.3-0.2,0.7-0.3,1c0,0.1-0.1,0.3-0.1,0.4c-0.5,2.1-0.5,2.1-2.3,0.8c-0.2-0.1-0.3-0.2-0.6-0.4c-0.1,0.9-0.6,1.2-1.4,1.1
	c-0.7,0-1.2,0.7-2,0.2c-0.2-0.1-0.6,0.1-1,0.2c-0.3,0-0.6-0.1-1-0.2c-0.2-0.4-0.3-0.8-0.5-1.3c-0.1-0.2-0.1-0.5,0-0.6
	c0.7-0.5,0.3-1,0-1.5c-0.1-0.2-0.4-0.2-0.6-0.3c0,0.2-0.1,0.5-0.1,0.7c0,0.3,0.2,0.6,0.1,0.8c-0.2,0.3-0.5,0.5-0.8,0.6
	c-0.3,0-0.6-0.3-0.8-0.5c-0.7-0.8-1.3-1.7-2-2.5c-0.2-0.2-0.6-0.2-0.9-0.4c-0.1,0.4-0.2,0.8-0.3,1.4c-0.5-0.8-1-1.5-1.4-2.1
	c-0.2-0.3-0.5-0.6-0.8-0.9c-0.1-0.1-0.3-0.2-0.4-0.4c-0.7-1.4-1.5-2.7-1.9-4.1c-0.6-2-1.1-4-1.4-6.1c-0.2-1.6-0.1-3.3-0.1-5
	c0.1-2.7,0.7-5.2,1.8-7.7c1.2-2.9,2.6-5.6,4.8-7.8c1.1-1.2,2.5-2.2,3.8-3.2c0.4-0.3,0.7-0.2,0.9,0.4c0.2,0.8,1.1,0.6,1.7,0.9
	c0.7,0.4,1.2,0,1.5-0.6c0.2-0.3,0.2-0.7,0.5-1c0.4-0.5,0.8-0.9,1.3-1.3c0.2-0.2,0.4-0.4,0.7-0.4c0.3-0.1,0.7-0.2,1-0.2
	c0,0.4,0.2,0.8,0.1,1.2C252,388.5,251.8,388.8,251.6,389.3z"/>
<path class="st32" d="M249.9,430.7c0.6,0,1.3,0.6,1.3,1.2c0,0.7-0.6,1.3-1.3,1.3c-0.6,0-1.4-0.5-1.4-1
	C248.5,431.6,249.2,430.7,249.9,430.7z"/>
<path class="st33" d="M253.4,432.6c0.1-0.5,0.2-1,0.4-1.4c0.1-0.2,0.3-0.4,0.4-0.5c0.1,0,0.3,0.2,0.5,0.4c0.1,0.1,0.3,0.3,0.3,0.5
	c0.1,0.3,0.1,0.7,0,1c-0.1,0.1-0.5,0.2-0.8,0.2C253.9,432.8,253.7,432.7,253.4,432.6z"/>
<path class="st33" d="M261.9,388.9c-0.5-0.7,0-1.4,0-2c0.5,0.1,0.9,0.2,1.4,0.3c-0.1,0.4,0,0.8-0.3,1.1
	C262.9,388.5,262.4,388.7,261.9,388.9z"/>
<path class="st33" d="M255.6,433.2c0.1-0.3,0.2-0.6,0.2-0.9c0.1,0,0.2,0,0.3,0.1c-0.1,0.3-0.1,0.6-0.2,0.9
	C255.8,433.3,255.7,433.2,255.6,433.2z"/>
<path class="st33" d="M264,387.9c0.1-0.3,0.2-0.6,0.2-0.9c0.1,0,0.2,0,0.3,0.1c0,0.3-0.1,0.6-0.1,0.9
	C264.2,388,264.1,387.9,264,387.9z"/>
<path class="st33" d="M259.9,386.7c0.3-0.1,0.6-0.2,0.9-0.3c0,0.1,0.1,0.2,0.1,0.3c-0.3,0.1-0.6,0.2-0.9,0.3
	C260,386.9,260,386.8,259.9,386.7z"/>
<path class="st33" d="M252.3,432.2c0,0,0,0.1-0.1,0.1c0,0-0.1,0-0.1-0.1c0,0,0-0.1,0.1-0.1C252.2,432.2,252.3,432.2,252.3,432.2z"/>
<path class="st6" d="M264.9,439.6c-0.3-0.2-0.7-0.4-1-0.6c0.6-1.3,0.7-1.4,1.9-1c0.1,0.1,0.1,0.2,0.2,0.4c0,0.3,0,0.6,0,0.9
	C265.6,439.4,265.2,439.5,264.9,439.6z"/>
<path class="st6" d="M276.6,406.5c-0.3,0.3-0.7,0.8-1,0.8s-0.7-0.5-1-0.7c0.3-0.4,0.6-0.9,1-1C276,405.3,276.6,405.6,276.6,406.5z"
	/>
<path class="st29" d="M264.9,439.6c0.4-0.1,0.7-0.2,1.1-0.4c-0.1,0.2-0.2,0.6-0.3,0.6C265.4,439.9,265.1,439.7,264.9,439.6z"/>
<path class="st29" d="M266,438.3c-0.1-0.1-0.1-0.2-0.2-0.4C265.8,438.1,265.9,438.2,266,438.3z"/>
<path class="st31" d="M266.8,419.4c0,0.8-0.4,1.3-1.1,1.3c-0.8,0-1.4-0.5-1.4-1.3c0-0.6,0.7-1.2,1.4-1.2
	C266.4,418.2,266.8,418.7,266.8,419.4z"/>
<path class="st34" d="M258.5,366c-32.7,2.7-53.9,51.9-25,77.7c29.3,26.1,65.5-7.6,64.2-38.9C296.8,380.5,276.7,365.2,258.5,366
	 M228.5,388.7c9.9-15.3,29-27.8,49.8-12.5c-0.1,0-13.4,0.6-3.8,14.8c5.2,7.7,5.5,13.9,1.4,26.4c-1.5,6.2-1.9,8.1-3.3,14.4
	c-6.4-15.2-11.5-28.1-15.6-44.6c3.6-0.5,7.7-1.1,5.6-3.4c-0.3-0.3-19.2,1.6-19.4,1.6c-1.5,0.2-1.7,2-1.7,2c-0.2,1.4,0.1,1.3,4.2,1.1
	c1.1,5.8,1.6,8.5,4.3,17c-1.9,8-3.9,16.3-4.2,29.2c-8.6-17.2-12.1-29.1-12.8-44.1c1.2-0.7,2.9-0.5,3.9-1.6c0.7-0.8,1.1-2.5,0.2-2.7
	C233.9,385.7,231.4,388,228.5,388.7 M273.9,442.3c3.5-15.1,9.3-29.5,12.7-44.5c0.7-2.9,1.2-7.5,0.2-12.5
	C297,401.1,295.8,425.8,273.9,442.3 M244.1,446.7c-22-10-26.1-33.7-18.7-52C225.7,412.8,230.7,426.9,244.1,446.7 M257,448.9
	c-2.8,0.2-5.1,0-7.9-0.6c-0.9-8.4-1.4-18.9,2.8-37.2c7.7,19.9,16.2,34.6,16.2,34.6C266.7,446.4,262.3,448.5,257,448.9"/>
<rect y="24.3" class="st5" width="595" height="793.3"/>
<path class="st35" d="M240.9,357c-16.1,4.5-17.8-2.9-14-3.7c3.7-0.8,13.6-6.6,18.6-11.6L240.9,357z"/>
<rect y="24.3" class="st5" width="595" height="793.3"/>
<path class="st35" d="M346.3,469.3c-7,26.9-34.7,52.5-66.1,59.9c-27,6.4-57-14.5-56.6-27.3c0.5-14.4,18.6-13.6,27.7,1.7
	c13.9,23.4,61.6,7,79.3-25.6L346.3,469.3z"/>
<rect y="24.3" class="st5" width="595" height="793.3"/>
<path class="st36" d="M244,361.8c-0.2,0.1-0.4,0.3-0.5,0.4c0.3-0.1,0.5-0.2,0.8-0.3C244.2,361.9,244.1,361.9,244,361.8z"/>
<rect y="24.3" class="st5" width="595" height="793.3"/>
<path class="st36" d="M262.2,359c-0.3,0-0.5,0-0.8,0c-6,0-11.7,1-17.1,2.9C251.1,365.3,257,362.8,262.2,359z"/>
<rect y="24.3" class="st5" width="595" height="793.3"/>
<path class="st37" d="M302.9,481.8c10.1,0.9,26.6-1,43.4-12.5c30.2-20.8,27.3-85.1,17.8-112s-29.3-45-56.6-45.9
	c-27.3-0.8-50,11.2-62,30.2c-8.1,12.8-2.1,19.8,1.6,21.5c3.7,1.7,19.4-4.5,24-12.8c10.7,6.6,22.7,3.7,33,0.4l19.8,5.8
	c-15.7-6.2-35.5-2.5-45.9,6.6c-10.3,9.1-3.3,15.7,4.6,16.5s23.1-6.2,35.1-3.7s15.7,6.9,28.5,18.4c0,0,7,28.1,0,38.9
	c-12.2-7-34.2,0.9-40.8,15.9L302.9,481.8z"/>
<rect y="24.3" class="st5" width="595" height="793.3"/>
<path d="M346.4,435c-0.2,0-0.4,0-0.5-0.1c-1-0.3-1.5-1.3-1.2-2.3c1.8-5.9,2.6-12,2.6-18.2c0-6.9-1.1-13.7-3.3-20.2
	c-0.3-1,0.2-2,1.2-2.4c1-0.3,2,0.2,2.4,1.2c2.3,6.9,3.5,14.1,3.5,21.4c0,6.6-0.9,13.1-2.8,19.3C348,434.5,347.2,435,346.4,435z"/>
<rect y="24.3" class="st5" width="595" height="793.3"/>
<path d="M306.2,450.1c-0.3,0-0.6-0.1-0.8-0.2c-0.9-0.5-1.3-1.6-0.8-2.5c5-10.2,14.4-16.7,25.8-17.8c9.4-0.9,18.8,2,22.8,7.2
	c0.6,0.8,0.5,2-0.3,2.6s-2,0.5-2.6-0.3c-3.2-4.2-11.4-6.6-19.5-5.8c-5.9,0.6-16.8,3.5-22.8,15.8
	C307.5,449.8,306.9,450.1,306.2,450.1z"/>
<rect y="24.3" class="st5" width="595" height="793.3"/>
<path d="M307.3,483.9c-1.9,0-3.4-0.1-4.6-0.2c-1-0.1-1.8-1-1.7-2c0.1-1,1-1.8,2-1.7c6.5,0.6,23.7,0.6,42.2-12.2
	c29.1-20,26.5-83.1,17.1-109.8c-9.8-27.6-29.8-43.9-54.9-44.6c-25.7-0.8-48.3,10.2-60.3,29.3c-3.3,5.2-4.4,10-3.3,13.8
	c0.8,2.7,2.8,4.4,4.1,5c2.3,1,17.2-4.1,21.6-12c0.2-0.5,0.7-0.8,1.1-0.9c0.5-0.1,1-0.1,1.5,0.2c10.2,6.3,21.6,3.4,31.5,0.2
	c1-0.3,2,0.2,2.3,1.2s-0.2,2-1.2,2.3c-10.9,3.5-22.5,5.9-33,0.3c-5.9,8.1-20.8,14.1-25.3,12c-2.2-1-5-3.4-6.2-7.4
	c-1-3.4-1.2-9,3.7-16.8c12.8-20.2,36.5-31.9,63.6-31c26.7,0.8,48,18,58.3,47.1c4.5,12.6,8.1,35.7,6.1,59c-1.6,18.5-7.1,43-24.6,55.1
	C331.2,481.9,316.1,483.9,307.3,483.9z"/>
<rect y="24.3" class="st5" width="595" height="793.3"/>
<path class="st35" d="M339.6,323.1c-7.4-0.6-1.7,5,0.8,7c2.5,2.1,20.2,18.2,36.8,13.2c16.5-5,21.5-18.6,18.2-19.4
	C392.1,323.1,354.9,324.3,339.6,323.1z"/>
<rect y="24.3" class="st5" width="595" height="793.3"/>
<path d="M338.1,324.9c0.5,0.8,1.7,2.2,3.6,3.8l0.5,0.4c12.9,11,22.6,13.3,28.5,13.3l0,0c2.1,0,4.1-0.3,6-0.9
	c9.1-2.7,14.6-8.4,16.8-12.7c0.8-1.6,1-2.7,1-3.2c-1.2-0.1-4.5-0.2-9.6-0.2c-2.7,0-5.8,0-9.1,0c-3.8,0-7.8,0-11.8,0
	c-7.4,0-18-0.1-24.6-0.6C338.9,324.9,338.4,324.9,338.1,324.9z M370.7,346.1L370.7,346.1c-6.5,0-17.2-2.5-30.9-14.2l-0.5-0.4
	c-6.1-5.1-5.2-7.4-5-8.2c0.5-1.5,2-2.2,4.3-2.2c0.4,0,0.8,0,1.2,0c6.4,0.5,16.9,0.6,24.3,0.6c4,0,8,0,11.7,0c3.3,0,6.4,0,9.1,0
	c7.9,0,10,0.1,10.9,0.4c1.4,0.4,2.3,1.6,2.4,3.4c0.1,4.5-6,15.2-20.5,19.6C375.5,345.8,373.1,346.1,370.7,346.1z"/>
<rect y="24.3" class="st5" width="595" height="793.3"/>
<path d="M231.9,360.3c-4.2,0-6.3-1.3-7.3-2.3c-1.1-1.1-1.5-2.6-1.1-3.9s1.5-2.3,3-2.6c3.2-0.7,12.8-6.2,17.7-11.1
	c0.7-0.7,1.9-0.7,2.6,0c0.7,0.7,0.7,1.9,0,2.6c-5.1,5.1-15.3,11.1-19.5,12.1c-0.2,0-0.2,0.1-0.2,0.1s0.1,0.2,0.5,0.5
	c0.8,0.5,4,2,12.8-0.5c1-0.3,2,0.3,2.3,1.3s-0.3,2-1.3,2.3C237.4,359.9,234.3,360.3,231.9,360.3z"/>
<rect y="24.3" class="st5" width="595" height="793.3"/>
<path d="M267.8,339.6c-3,2.2-2.1,5,1.2,5.4c3.3,0.4,3.6,0.6,6.6-1.6c3.3-2.5,3.7-6.6,0-6.2C271.9,337.5,269.4,338.4,267.8,339.6z"/>
<rect y="24.3" class="st5" width="595" height="793.3"/>
<path d="M259.1,341.2c0,2.1-1.7,3.7-3.7,3.7c-2.1,0-3.7-1.7-3.7-3.7s1.7-3.7,3.7-3.7C257.4,337.5,259.1,339.2,259.1,341.2z"/>
<rect y="24.3" class="st5" width="595" height="793.3"/>
<path d="M302,330.9c0,2.1-1.7,3.7-3.7,3.7c-2.1,0-3.7-1.7-3.7-3.7c0-2.1,1.7-3.7,3.7-3.7C300.4,327.2,302,328.9,302,330.9z"/>
<rect y="24.3" class="st5" width="595" height="793.3"/>
<path d="M269.8,532.3c-14.5,0-28.6-6.2-37.6-13.6c-6.8-5.6-10.7-11.7-10.5-16.8c0.2-6.1,3.3-10.4,8.5-11.7c6.6-1.7,16.5,2,22.7,12.5
	c5.1,8.6,14.4,10.3,21.2,10.1c20.4-0.4,44-15.7,54.9-35.7c0.5-0.9,1.6-1.2,2.5-0.7s1.2,1.6,0.7,2.5c-11.4,21-36.4,37.2-58,37.6
	c-11.2,0.2-19.8-4-24.5-11.9c-5.3-8.9-13.3-12.1-18.6-10.8c-3.5,0.9-5.5,3.8-5.7,8.2c-0.1,3.9,3.3,9,9.1,13.8
	c10.5,8.6,28.6,15.5,45.2,11.6c30.5-7.2,57.8-31.9,64.7-58.6c0.3-1,1.3-1.6,2.3-1.3c1,0.3,1.6,1.3,1.3,2.3
	c-7.3,28-35.7,53.7-67.5,61.3C277,531.9,273.4,532.3,269.8,532.3z"/>
<rect y="24.3" class="st5" width="595" height="793.3"/>
<path d="M350.4,399.3c-0.4,0-0.9-0.2-1.2-0.5l-1.5-1.3c-12-10.9-19.3-17.4-30.3-19.7c-6.6-1.4-14.5,0.4-21.5,1.9
	c-5.3,1.2-9.9,2.2-13.4,1.8c-5.5-0.6-9.8-3.5-11-7.3c-0.9-2.7-0.6-7.1,5.4-12.4c11.4-10,32.3-13,47.8-7c1,0.4,1.4,1.5,1,2.4
	c-0.4,1-1.5,1.4-2.4,1c-14.2-5.6-33.6-2.9-44,6.3c-3.6,3.1-5.1,6.2-4.4,8.5c0.8,2.4,3.9,4.3,7.9,4.8c3,0.3,7.5-0.7,12.2-1.8
	c7.4-1.6,15.7-3.5,23.1-1.9c12,2.5,20,9.7,32,20.6l1.5,1.3c0.8,0.7,0.8,1.9,0.1,2.6C351.4,399.1,350.9,399.3,350.4,399.3z"/>
<rect y="24.3" class="st5" width="595" height="793.3"/>
<path class="st37" d="M218.6,432.6c-10.1-7.8-21.5-0.8-19,11.2c2,9.8,18.7,28.1,30.6,31c10.3,2.5,8.2-8.7,6.6-12.4
	C233.9,455.7,223.9,436.7,218.6,432.6z"/>
<rect y="24.3" class="st5" width="595" height="793.3"/>
<path d="M209.8,431.1c-2.7,0-5,1.1-6.6,3.1c-1.9,2.3-2.5,5.6-1.8,9.1c1.9,9.2,18.2,26.9,29.2,29.6c0.8,0.2,1.6,0.3,2.3,0.3
	c1.7,0,2.4-0.7,2.7-1.2c1.4-2,0.6-6.5-0.5-9c-3.1-7-12.7-25.3-17.6-29C215,432.1,212.3,431.1,209.8,431.1z M232.9,476.9L232.9,476.9
	c-1,0-2-0.1-3.1-0.4c-12.6-3-29.8-21.9-32-32.4c-1-4.7-0.1-9.1,2.5-12.2c2.3-2.8,5.8-4.4,9.5-4.4c3.4,0,6.8,1.3,9.9,3.7
	c6.1,4.7,16.5,25.4,18.8,30.5c0.9,2.1,2.8,8.5,0.2,12.5C237.8,475.4,236.1,476.9,232.9,476.9z"/>
<rect y="24.3" class="st5" width="595" height="793.3"/>
<path class="st37" d="M306.2,475.1c0,0-2.5,14.5-16.1,14.5s-7.9-16.5-9.5-27.3c-1.6-10.7-8.3-24.8,1.6-31.4s21.9,12.8,24,20.2
	C309.1,461.1,308.7,467.3,306.2,475.1z"/>
<rect y="24.3" class="st5" width="595" height="793.3"/>
<path d="M286.5,432c-1,0-2,0.3-2.9,0.9c-5.9,3.9-4.7,11-2.2,21.3c0.6,2.5,1.2,5.2,1.6,7.7c0.5,3.2,0.4,6.8,0.3,10.3
	c-0.2,5.4-0.4,10.9,2,13.3c1,1.1,2.6,1.6,4.8,1.6c11.3,0,13.6-11.9,13.7-12.4c0-0.1,0-0.2,0.1-0.3c2.2-7,2.9-12.7,0-22.5
	C302,445.2,293.2,432,286.5,432z M290.1,492.1c-3.6,0-6.4-1-8.4-3.1c-3.8-3.9-3.6-10.5-3.4-17c0.1-3.2,0.2-6.6-0.2-9.4
	c-0.3-2.3-0.9-4.7-1.5-7.3c-2.3-9.6-4.9-20.5,4.3-26.6c1.8-1.2,3.7-1.8,5.7-1.8c10.8,0,20.3,17,22.1,23.4c3.2,10.9,2.4,17.5,0,25.2
	C307.5,481.5,302.4,492.1,290.1,492.1z"/>
<rect y="24.3" class="st5" width="595" height="793.3"/>
<path class="st37" d="M230.1,361.1c-4.1-1.6-14.5,5.4-13.2,12c1.2,6.6,8.7,6.6,13.6,1.6C235.4,369.8,234.1,362.8,230.1,361.1z"/>
<rect x="-10" y="22.3" class="st5" width="595" height="793.3"/>
<path d="M228.6,362.8c-2,0-5.7,1.8-8.1,4.7c-0.9,1.1-2.3,3.2-1.9,5.3c0.6,3,2.6,3.7,4.2,3.7c2.1,0,4.4-1.1,6.3-3
	c2.1-2.1,3-4.8,2.5-7.4c-0.3-1.6-1.2-2.8-2.3-3.2C229.2,362.8,228.9,362.8,228.6,362.8z M222.8,380.2L222.8,380.2
	c-4.1,0-7.1-2.6-7.8-6.7c-0.5-2.7,0.4-5.7,2.7-8.4c2.9-3.5,7.5-6.1,10.9-6.1c0.8,0,1.5,0.1,2.1,0.4c2.3,0.9,4,3.1,4.6,5.9
	c0.8,3.8-0.5,7.8-3.5,10.8C229.2,378.7,225.9,380.2,222.8,380.2z"/>
<rect x="-10" y="22.3" class="st5" width="595" height="793.3"/>
<g>
	<rect y="24.3" class="st5" width="595" height="793.3"/>
</g>
<g>
	<rect y="24.3" class="st5" width="595" height="793.3"/>
</g>
<g>
	<rect y="24.3" class="st5" width="595" height="793.3"/>
</g>
<g>
	<rect y="24.3" class="st5" width="595" height="793.3"/>
</g>
<g>
	<rect y="24.3" class="st5" width="595" height="793.3"/>
</g>
<g>
	<rect y="24.3" class="st5" width="595" height="793.3"/>
</g>
<g>
	<rect x="-12.8" y="-18" class="st5" width="620.5" height="878.1"/>
</g>
<path class="st38" d="M257.1,535.9"/>
</svg>
